<?xml version="1.0" encoding="utf-8"?>
<!-- Generator: Adobe Illustrator 16.0.0, SVG Export Plug-In . SVG Version: 6.00 Build 0)  -->
<!DOCTYPE svg PUBLIC "-//W3C//DTD SVG 1.1//EN" "http://www.w3.org/Graphics/SVG/1.1/DTD/svg11.dtd">
<svg version="1.1" id="Layer_1" xmlns="http://www.w3.org/2000/svg" xmlns:xlink="http://www.w3.org/1999/xlink" x="0px" y="0px"
	 width="546.243px" height="546.243px" viewBox="0 0 546.243 546.243" enable-background="new 0 0 546.243 546.243"
	 xml:space="preserve">
<image display="none" overflow="visible" width="984" height="984" xlink:href="../../../사진/Goldbrew/그림1.png"  transform="matrix(0.5528 0 0 0.5528 -67.7749 91.146)">
</image>
<rect x="107.858" y="107.856" transform="matrix(0.7071 0.7071 -0.7071 0.7071 273.1213 -113.1323)" opacity="0.9" fill="#282726" width="330.532" height="330.532"/>
<g display="none">
	<linearGradient id="SVGID_1_" gradientUnits="userSpaceOnUse" x1="170.3867" y1="263.7295" x2="143.2783" y2="216.7764">
		<stop  offset="0" style="stop-color:#F9B26C"/>
		<stop  offset="0.3282" style="stop-color:#C28F5F"/>
		<stop  offset="0.5215" style="stop-color:#A77D59"/>
		<stop  offset="0.5395" style="stop-color:#AA7F5A"/>
		<stop  offset="0.8502" style="stop-color:#E3A467"/>
		<stop  offset="1" style="stop-color:#F9B26C"/>
	</linearGradient>
	<path display="inline" fill="url(#SVGID_1_)" d="M168.081,246.508c0-1.572-0.527-2.92-1.584-4.043
		c-1.055-1.123-2.303-1.685-3.738-1.685h-4.213v-1.247h23.889v1.247h-0.709c-1.348,0-2.543,0.562-3.588,1.685
		s-1.566,2.471-1.566,4.043v5.997c0,1.438,0.123,2.572,0.371,3.403c0.246,0.83,0.65,1.516,1.213,2.055v1.28
		c-1.191,0.09-2.201,0.202-3.033,0.337c-0.83,0.135-1.561,0.303-2.189,0.506c-0.965,0.291-2.447,0.83-4.447,1.617
		c-5.547,2.201-10.164,3.301-13.848,3.301c-2.516,0-4.93-0.303-7.242-0.909c-2.314-0.606-4.459-1.505-6.436-2.695
		c-3.863-2.269-6.84-5.272-8.928-9.013c-2.09-3.739-3.135-7.934-3.135-12.584c0-3.436,0.658-6.727,1.971-9.871
		c1.314-3.145,3.186-5.907,5.611-8.288c2.291-2.245,4.861-3.976,7.715-5.188c2.852-1.213,5.771-1.819,8.76-1.819
		c1.033,0,2.941,0.19,5.727,0.573c2.785,0.382,5.066,0.572,6.84,0.572c1.82,0,3.375-0.112,4.666-0.337
		c1.291-0.224,2.455-0.595,3.488-1.112v1.045c0,2.74,0.246,5.407,0.74,8.002c0.494,2.594,1.234,5.127,2.225,7.598l-1.18,0.471
		c-2.516-4.828-5.756-8.585-9.721-11.27c-3.965-2.684-8.227-4.025-12.785-4.025c-4.986,0-8.748,1.993-11.287,5.979
		c-2.539,3.987-3.807,9.878-3.807,17.671c0,3.572,0.354,6.699,1.061,9.384s1.803,5.025,3.285,7.024
		c1.686,2.336,3.723,4.133,6.115,5.391s4.957,1.887,7.699,1.887c3.705,0,6.643-0.971,8.809-2.914
		c2.168-1.943,3.252-4.565,3.252-7.867V246.508z M148.675,263.117c-4.918-2.38-8.598-5.536-11.033-9.467
		c-2.438-3.93-3.656-8.658-3.656-14.184c0-4.156,0.73-8.008,2.189-11.557c1.461-3.549,3.561-6.604,6.301-9.164
		c-3.863,2.044-6.885,4.941-9.063,8.692c-2.18,3.751-3.268,7.917-3.268,12.499c0,5.773,1.678,10.765,5.035,14.977
		C138.54,259.125,143.036,261.859,148.675,263.117z M172.157,224.137c-0.516-1.213-0.932-2.409-1.246-3.588
		c-0.314-1.18-0.527-2.354-0.641-3.521c-0.605,0.135-1.234,0.242-1.887,0.32c-0.65,0.079-1.303,0.118-1.953,0.118
		c-0.719-0.022-1.785-0.112-3.201-0.27c-0.09,0-0.156-0.011-0.201-0.034c1.953,0.877,3.684,1.893,5.188,3.05
		S171.034,222.677,172.157,224.137z M166.632,260.86l8.02-2.695c-0.539-0.562-0.922-1.19-1.146-1.887s-0.336-1.819-0.336-3.369
		v-7.581c0-0.719,0.09-1.297,0.27-1.734c0.18-0.438,0.459-0.803,0.842-1.096l2.291-1.718h-10.006l3.57,3.1v0.606
		c-0.27,0.157-0.471,0.377-0.605,0.657s-0.203,0.646-0.203,1.095v7.379c0,1.279-0.234,2.561-0.707,3.84
		C168.149,258.738,167.485,259.872,166.632,260.86z"/>
	<linearGradient id="SVGID_2_" gradientUnits="userSpaceOnUse" x1="203.8013" y1="263.6885" x2="191.8877" y2="243.0536">
		<stop  offset="0" style="stop-color:#F9B26C"/>
		<stop  offset="0.3282" style="stop-color:#C28F5F"/>
		<stop  offset="0.5215" style="stop-color:#A77D59"/>
		<stop  offset="0.5395" style="stop-color:#AA7F5A"/>
		<stop  offset="0.8502" style="stop-color:#E3A467"/>
		<stop  offset="1" style="stop-color:#F9B26C"/>
	</linearGradient>
	<path display="inline" fill="url(#SVGID_2_)" d="M197.831,241.791c3.549,0,6.508,1.111,8.877,3.336
		c2.369,2.223,3.555,4.952,3.555,8.187c0,3.28-1.191,6.048-3.57,8.305c-2.381,2.258-5.336,3.386-8.861,3.386
		c-3.527,0-6.48-1.128-8.861-3.386c-2.381-2.257-3.57-5.024-3.57-8.305c0-3.234,1.184-5.964,3.553-8.187
		C191.323,242.902,194.282,241.791,197.831,241.791z M194.226,263.32c-1.549-1.235-2.717-2.689-3.504-4.363s-1.18-3.555-1.18-5.644
		c0-2.269,0.434-4.257,1.297-5.964c0.865-1.706,2.141-3.076,3.824-4.109c-2.381,0.629-4.289,1.858-5.727,3.688
		c-1.438,1.831-2.156,3.937-2.156,6.317c0,2.246,0.674,4.285,2.021,6.115S191.956,262.512,194.226,263.32z M197.831,243.037
		c-1.662,0-2.932,0.877-3.807,2.629c-0.877,1.752-1.314,4.301-1.314,7.647c0,3.392,0.438,5.98,1.314,7.766
		c0.875,1.786,2.145,2.679,3.807,2.679s2.932-0.893,3.807-2.679c0.877-1.785,1.314-4.374,1.314-7.766
		c0-3.347-0.438-5.896-1.314-7.647C200.763,243.914,199.493,243.037,197.831,243.037z M201.267,263.32
		c1.91-0.809,3.393-2.09,4.447-3.842c1.057-1.752,1.584-3.773,1.584-6.064c0-2.268-0.512-4.262-1.533-5.979
		c-1.021-1.719-2.521-3.083-4.498-4.094c0.922,0.72,1.635,1.971,2.141,3.757c0.504,1.785,0.758,3.914,0.758,6.385
		c0,2.291-0.236,4.256-0.707,5.896C202.985,261.018,202.255,262.332,201.267,263.32z"/>
	<linearGradient id="SVGID_3_" gradientUnits="userSpaceOnUse" x1="232.3154" y1="262.1875" x2="207.5776" y2="219.3404">
		<stop  offset="0" style="stop-color:#F9B26C"/>
		<stop  offset="0.3282" style="stop-color:#C28F5F"/>
		<stop  offset="0.5215" style="stop-color:#A77D59"/>
		<stop  offset="0.5395" style="stop-color:#AA7F5A"/>
		<stop  offset="0.8502" style="stop-color:#E3A467"/>
		<stop  offset="1" style="stop-color:#F9B26C"/>
	</linearGradient>
	<path display="inline" fill="url(#SVGID_3_)" d="M213.565,264.162v-1.246h0.605c1.348,0,2.309-0.32,2.881-0.961
		c0.572-0.64,0.859-1.723,0.859-3.251v-38.577c0-1.324-0.18-2.173-0.539-2.543c-0.359-0.371-1.123-0.557-2.291-0.557h-1.516v-1.145
		c2.695-0.135,4.93-0.298,6.703-0.489c1.775-0.19,3.27-0.442,4.482-0.758v44.271c0,1.73,0.201,2.83,0.605,3.302
		s1.258,0.708,2.561,0.708h0.977v1.246H213.565z M219.091,219.791v39.418c0,1.012-0.096,1.803-0.287,2.376
		c-0.191,0.572-0.512,1.017-0.961,1.331h1.518c1.055,0,1.746-0.157,2.07-0.473c0.326-0.314,0.49-1.078,0.49-2.291l-0.035-43.664
		c-0.965,0.113-1.689,0.191-2.172,0.236c-0.484,0.045-0.939,0.079-1.365,0.102c0.248,0.27,0.432,0.629,0.557,1.078
		C219.028,218.354,219.091,218.982,219.091,219.791z"/>
	<linearGradient id="SVGID_4_" gradientUnits="userSpaceOnUse" x1="260.5498" y1="264.5215" x2="235.1621" y2="220.5487">
		<stop  offset="0" style="stop-color:#F9B26C"/>
		<stop  offset="0.3282" style="stop-color:#C28F5F"/>
		<stop  offset="0.5215" style="stop-color:#A77D59"/>
		<stop  offset="0.5395" style="stop-color:#AA7F5A"/>
		<stop  offset="0.8502" style="stop-color:#E3A467"/>
		<stop  offset="1" style="stop-color:#F9B26C"/>
	</linearGradient>
	<path display="inline" fill="url(#SVGID_4_)" d="M255.646,257.391c0,2.269,0.219,3.745,0.656,4.43
		c0.438,0.686,1.275,1.027,2.51,1.027h2.359v1.314h-12.432v-1.719c-0.855,0.674-1.758,1.174-2.713,1.5
		c-0.955,0.325-2.004,0.488-3.15,0.488c-3.121,0-5.711-1.072-7.766-3.218c-2.055-2.145-3.082-4.868-3.082-8.17
		c0-3.167,1.031-5.806,3.1-7.917c2.066-2.111,4.648-3.168,7.748-3.168c0.965,0,1.943,0.203,2.932,0.607s1.965,0.999,2.932,1.785
		v-21.799c0-1.998-0.266-3.419-0.793-4.262c-0.527-0.842-1.41-1.264-2.645-1.264h-1.684l0.033-1.381
		c0.201,0.022,0.432,0.039,0.689,0.051c0.26,0.012,0.67,0.017,1.23,0.017c1.438,0,2.977-0.089,4.615-0.27
		c1.641-0.18,3.459-0.449,5.459-0.809V257.391z M240.181,263.117c-1.234-1.055-2.139-2.375-2.713-3.958
		c-0.572-1.584-0.857-3.532-0.857-5.846c0-2.224,0.252-4.127,0.758-5.711c0.504-1.583,1.309-2.937,2.408-4.06
		c-2.111,0.854-3.711,2.123-4.801,3.807c-1.09,1.686-1.635,3.729-1.635,6.133c0,2.357,0.623,4.419,1.871,6.182
		C236.458,261.428,238.114,262.578,240.181,263.117z M248.739,260.658v-14.723c-0.674-0.742-1.404-1.314-2.191-1.719
		c-0.785-0.404-1.527-0.606-2.223-0.606c-1.551,0-2.707,0.864-3.471,2.595c-0.764,1.729-1.145,4.357-1.145,7.883
		c0,2.809,0.408,5.016,1.229,6.621s1.949,2.408,3.387,2.408c0.809,0,1.584-0.201,2.324-0.605
		C247.392,262.107,248.087,261.489,248.739,260.658z M252.747,262.848l-0.033-46.359c-0.875,0.158-1.662,0.281-2.357,0.371
		c-0.697,0.09-1.348,0.146-1.955,0.168c0.539,0.563,0.926,1.225,1.162,1.988s0.354,1.966,0.354,3.605v40.227H252.747z"/>
	<linearGradient id="SVGID_5_" gradientUnits="userSpaceOnUse" x1="311.3672" y1="265.7744" x2="281.7578" y2="214.4895">
		<stop  offset="0" style="stop-color:#F9B26C"/>
		<stop  offset="0.3282" style="stop-color:#C28F5F"/>
		<stop  offset="0.5215" style="stop-color:#A77D59"/>
		<stop  offset="0.5395" style="stop-color:#AA7F5A"/>
		<stop  offset="0.8502" style="stop-color:#E3A467"/>
		<stop  offset="1" style="stop-color:#F9B26C"/>
	</linearGradient>
	<path display="inline" fill="url(#SVGID_5_)" d="M296.546,215.444h6.268c4.424,0,8.107,1.247,11.051,3.739
		c2.941,2.494,4.414,5.571,4.414,9.232c0,2.291-0.697,4.268-2.09,5.93s-3.391,2.908-5.996,3.739
		c4.109,0.876,7.311,2.505,9.602,4.886s3.436,5.256,3.436,8.625c0,3.93-1.387,7.086-4.16,9.467s-6.463,3.571-11.068,3.571
		c-1.414,0-3.279-0.079-5.592-0.235c-2.314-0.158-3.932-0.236-4.852-0.236h-17.453v-1.314h1.113c1.369,0,2.576-0.561,3.621-1.684
		s1.566-2.471,1.566-4.043v-34.635c0-1.572-0.521-2.92-1.566-4.043s-2.252-1.686-3.621-1.686h-1.113v-1.313H296.546z
		 M284.755,262.848h9.635c-1.168-0.92-1.932-1.667-2.291-2.24c-0.359-0.572-0.539-1.318-0.539-2.24v-37.128
		c0-0.696,0.09-1.269,0.27-1.718s0.461-0.82,0.844-1.112l2.291-1.651h-10.008l3.572,3.033v0.64c-0.27,0.135-0.473,0.343-0.607,0.623
		c-0.135,0.281-0.201,0.646-0.201,1.095v35.882c0,0.966-0.23,1.825-0.691,2.577C286.567,261.36,285.81,262.107,284.755,262.848z
		 M294.896,237.377h6.807c2.402,0,4.271-0.803,5.609-2.408c1.336-1.605,2.004-3.857,2.004-6.756c0-3.211-0.926-5.935-2.779-8.17
		c-1.854-2.234-4.037-3.352-6.553-3.352c-1.416,0-2.617,0.477-3.605,1.432s-1.482,2.15-1.482,3.588V237.377z M294.896,238.691
		v18.564c0,1.707,0.416,3.061,1.246,4.06c0.832,0.999,1.943,1.532,3.336,1.601l4.582,0.201h0.473c2.807,0,5.131-1.066,6.973-3.2
		s2.764-4.784,2.764-7.951c0-3.886-1.158-7.069-3.471-9.552c-2.313-2.481-5.301-3.723-8.961-3.723H294.896z M305.171,237.748
		c3.055-0.202,5.52-1.201,7.396-2.998c1.875-1.797,2.813-4.043,2.813-6.738c0-2.92-1.061-5.436-3.184-7.547
		s-4.857-3.348-8.203-3.707c2.156,1.213,3.789,2.785,4.902,4.717c1.111,1.933,1.666,4.201,1.666,6.807
		c0,2.357-0.482,4.374-1.447,6.047C308.147,236.002,306.833,237.142,305.171,237.748z M309.249,263.252
		c3.211-0.426,5.873-1.729,7.984-3.908c2.111-2.178,3.166-4.671,3.166-7.479c0-2.875-1.123-5.47-3.369-7.783
		c-2.246-2.313-5.346-4.043-9.299-5.188c2.426,1.213,4.33,2.96,5.711,5.239c1.383,2.279,2.072,4.834,2.072,7.664
		c0,2.539-0.539,4.791-1.617,6.756S311.271,262.085,309.249,263.252z"/>
	<linearGradient id="SVGID_6_" gradientUnits="userSpaceOnUse" x1="344.1377" y1="263.5693" x2="331.002" y2="240.8176">
		<stop  offset="0" style="stop-color:#F9B26C"/>
		<stop  offset="0.3282" style="stop-color:#C28F5F"/>
		<stop  offset="0.5215" style="stop-color:#A77D59"/>
		<stop  offset="0.5395" style="stop-color:#AA7F5A"/>
		<stop  offset="0.8502" style="stop-color:#E3A467"/>
		<stop  offset="1" style="stop-color:#F9B26C"/>
	</linearGradient>
	<path display="inline" fill="url(#SVGID_6_)" d="M338.628,258.906c0,1.73,0.201,2.83,0.605,3.302s1.258,0.708,2.561,0.708h1.314
		v1.246h-16.004v-1.246h0.977c1.326,0,2.275-0.32,2.848-0.961c0.572-0.64,0.859-1.723,0.859-3.251v-11.32
		c0-1.28-0.18-2.105-0.539-2.477c-0.359-0.37-1.146-0.556-2.359-0.556h-1.852v-1.246c2.83-0.088,5.166-0.236,7.008-0.443
		c1.84-0.209,3.369-0.498,4.582-0.871v3.941c1.459-1.393,2.768-2.396,3.924-3.015s2.285-0.927,3.387-0.927
		c1.459,0,2.689,0.512,3.689,1.533c0.998,1.021,1.498,2.285,1.498,3.79c0,1.235-0.324,2.257-0.977,3.065s-1.461,1.213-2.426,1.213
		c-0.83,0-1.516-0.314-2.055-0.943c-0.539-0.628-0.842-1.471-0.91-2.526c0-0.089,0-0.224,0-0.404
		c-0.135-2.38-0.572-3.571-1.314-3.571c-0.516,0-1.201,0.303-2.055,0.91c-0.854,0.605-1.773,1.448-2.762,2.526V258.906z
		 M335.729,260.018l-0.033-16.34c-0.473,0.113-1.404,0.191-2.797,0.236c-0.404,0.021-0.707,0.033-0.91,0.033
		c0.359,0.225,0.613,0.551,0.758,0.977c0.146,0.428,0.221,1.09,0.221,1.988v12.129c0,1.033-0.096,1.836-0.287,2.409
		c-0.191,0.572-0.512,1.017-0.961,1.331h1.518c1.031,0,1.705-0.152,2.021-0.455C335.573,262.022,335.729,261.254,335.729,260.018z
		 M344.489,243.105c0.426,0.201,0.742,0.46,0.943,0.774c0.203,0.315,0.348,0.774,0.438,1.382c0.045,0.404,0.09,0.955,0.135,1.65
		c0.113,1.797,0.506,2.695,1.18,2.695c0.426,0,0.752-0.202,0.977-0.606s0.338-0.988,0.338-1.752c0-1.348-0.303-2.375-0.91-3.083
		c-0.605-0.707-1.482-1.061-2.627-1.061H344.489z"/>
	<linearGradient id="SVGID_7_" gradientUnits="userSpaceOnUse" x1="372.1465" y1="263.5674" x2="360.3359" y2="243.1109">
		<stop  offset="0" style="stop-color:#F9B26C"/>
		<stop  offset="0.3282" style="stop-color:#C28F5F"/>
		<stop  offset="0.5215" style="stop-color:#A77D59"/>
		<stop  offset="0.5395" style="stop-color:#AA7F5A"/>
		<stop  offset="0.8502" style="stop-color:#E3A467"/>
		<stop  offset="1" style="stop-color:#F9B26C"/>
	</linearGradient>
	<path display="inline" fill="url(#SVGID_7_)" d="M376.901,255.604l0.908,0.27c-0.629,2.741-1.986,4.947-4.076,6.62
		c-2.088,1.674-4.525,2.51-7.311,2.51c-3.527,0-6.436-1.123-8.727-3.369c-2.291-2.245-3.436-5.064-3.436-8.456
		c0-3.323,1.139-6.053,3.418-8.187c2.281-2.135,5.217-3.201,8.811-3.201c3.01,0,5.514,0.814,7.514,2.442
		c2,1.629,3.381,3.971,4.145,7.024h-15.734v-1.044h8.053c-0.023-2.358-0.398-4.155-1.129-5.391s-1.77-1.853-3.117-1.853
		c-1.504,0-2.656,0.915-3.453,2.745c-0.797,1.831-1.195,4.464-1.195,7.901c0,3.549,0.449,6.081,1.348,7.597
		c0.898,1.517,2.357,2.274,4.379,2.274c2.18,0,4.133-0.707,5.863-2.123C374.89,259.951,376.138,258.03,376.901,255.604z
		 M362.683,262.916c-1.393-1.213-2.443-2.623-3.15-4.229s-1.061-3.363-1.061-5.273c0-2.156,0.41-4.138,1.229-5.946
		c0.82-1.808,1.883-3.138,3.186-3.992c-2.314,0.606-4.133,1.786-5.459,3.538s-1.988,3.852-1.988,6.3
		c0,2.291,0.635,4.273,1.904,5.946C358.612,260.934,360.392,262.152,362.683,262.916z M374.71,250.214
		c-0.291-1.505-0.859-2.818-1.701-3.942c-0.842-1.123-1.938-1.987-3.285-2.594c0.539,0.696,0.967,1.545,1.281,2.544
		s0.561,2.33,0.74,3.992H374.71z"/>
	<linearGradient id="SVGID_8_" gradientUnits="userSpaceOnUse" x1="412.1885" y1="262.876" x2="395.188" y2="233.4303">
		<stop  offset="0" style="stop-color:#F9B26C"/>
		<stop  offset="0.3282" style="stop-color:#C28F5F"/>
		<stop  offset="0.5215" style="stop-color:#A77D59"/>
		<stop  offset="0.5395" style="stop-color:#AA7F5A"/>
		<stop  offset="0.8502" style="stop-color:#E3A467"/>
		<stop  offset="1" style="stop-color:#F9B26C"/>
	</linearGradient>
	<path display="inline" fill="url(#SVGID_8_)" d="M392.433,265.004l-8.963-19.068c-0.381-0.809-0.82-1.387-1.313-1.735
		c-0.494-0.349-1.09-0.522-1.787-0.522c-0.201,0-0.359,0.006-0.471,0.017c-0.113,0.012-0.215,0.017-0.303,0.017v-1.279h13.543v1.313
		c-0.764,0-1.326,0.141-1.686,0.421c-0.359,0.281-0.539,0.736-0.539,1.365c0,0.247,0.029,0.494,0.084,0.74
		c0.057,0.248,0.141,0.484,0.254,0.708l4.615,9.872l4.01-8.424l-1.246-2.695c-0.293-0.674-0.67-1.173-1.129-1.499
		c-0.461-0.325-1.027-0.488-1.701-0.488h-0.674v-1.313h12.902v1.279c-0.65,0.046-1.135,0.22-1.447,0.522
		c-0.316,0.304-0.473,0.759-0.473,1.364c0,0.203,0.027,0.422,0.084,0.657c0.057,0.236,0.141,0.478,0.254,0.725l4.615,9.938
		l3.436-7.243c0.158-0.314,0.27-0.618,0.338-0.909c0.066-0.292,0.102-0.584,0.102-0.877c0-1.213-0.367-2.206-1.096-2.981
		c-0.73-0.774-1.68-1.162-2.848-1.162h-1.043v-1.313h11.959v1.313h-0.168c-1.078,0-2.045,0.365-2.896,1.095
		c-0.855,0.73-1.674,1.904-2.461,3.521l-7.883,16.643h-0.742l-7.311-15.194l-7.176,15.194H392.433z M392.903,263.117l1.516-3.234
		l-6.131-12.769c-0.18-0.427-0.314-0.792-0.404-1.095c-0.09-0.304-0.135-0.578-0.135-0.826c0-0.336,0.039-0.623,0.117-0.858
		c0.078-0.236,0.197-0.433,0.354-0.59h-4.951c0.27,0.225,0.549,0.556,0.842,0.994c0.291,0.438,0.674,1.162,1.145,2.173
		L392.903,263.117z M408.099,263.117l1.449-3.234l-6.064-12.769c-0.203-0.427-0.35-0.792-0.439-1.095
		c-0.09-0.304-0.135-0.578-0.135-0.826c0-0.381,0.035-0.685,0.102-0.909c0.068-0.224,0.18-0.404,0.338-0.539h-4.986
		c0.336,0.27,0.65,0.629,0.943,1.078c0.291,0.45,0.65,1.146,1.078,2.089L408.099,263.117z M415.813,246.575
		c0.338-0.539,0.656-1.044,0.961-1.517c0.303-0.471,0.611-0.909,0.926-1.313h-3.537c0.426,0.472,0.775,0.938,1.045,1.398
		S415.679,246.082,415.813,246.575z"/>
</g>
<line display="none" fill="none" stroke="#F8B26D" stroke-width="2" stroke-miterlimit="10" x1="136.765" y1="193.043" x2="250.265" y2="193.043"/>
<line display="none" fill="none" stroke="#F8B26D" stroke-width="2" stroke-miterlimit="10" x1="295.265" y1="193.043" x2="408.765" y2="193.043"/>
<g display="none">
	<linearGradient id="SVGID_9_" gradientUnits="userSpaceOnUse" x1="138.6475" y1="303.4717" x2="171.1182" y2="303.4717">
		<stop  offset="0" style="stop-color:#F9B26C"/>
		<stop  offset="0.3282" style="stop-color:#C28F5F"/>
		<stop  offset="0.5215" style="stop-color:#A77D59"/>
		<stop  offset="0.5395" style="stop-color:#AA7F5A"/>
		<stop  offset="0.8502" style="stop-color:#E3A467"/>
		<stop  offset="1" style="stop-color:#F9B26C"/>
	</linearGradient>
	<path display="inline" fill="url(#SVGID_9_)" d="M171.118,295.768c0,0.492-0.492,0.909-1.477,1.251s-2.188,0.513-3.609,0.513
		c-1.43,0-3.207-0.196-5.332-0.588c-1.121,0.583-2.146,1.447-3.076,2.591s-1.928,2.764-2.994,4.86s-1.848,3.493-2.344,4.19
		c-0.498,0.697-1.178,1.374-2.045,2.03c-2.287,1.695-4.662,2.543-7.123,2.543c-1.313,0-2.385-0.278-3.219-0.834
		s-1.252-1.276-1.252-2.16c0-0.446,0.133-0.829,0.396-1.148c0.266-0.319,0.58-0.479,0.943-0.479c0.594,0,0.889,0.31,0.889,0.93
		c0,0.292-0.09,0.542-0.273,0.752c-0.182,0.21-0.404,0.314-0.67,0.314c-0.428,0-0.643-0.21-0.643-0.629
		c0-0.219-0.035-0.328-0.109-0.328c-0.154,0-0.232,0.224-0.232,0.67c0,0.738,0.381,1.362,1.143,1.873
		c0.76,0.511,1.697,0.766,2.809,0.766c2.443,0,4.635-1.103,6.576-3.309c0.912-1.03,2.088-2.729,3.527-5.1
		c2.352-3.847,4.809-6.376,7.369-7.588c-0.492-0.082-1.23-0.232-2.215-0.451c-2.314-0.501-4.088-0.752-5.318-0.752
		c-0.127,0-0.51,0.019-1.148,0.055c0.43,0.802,0.643,1.718,0.643,2.748c0,2.005-0.76,3.888-2.283,5.646
		c-1.521,1.759-3.148,2.639-4.881,2.639c-0.719,0-1.305-0.239-1.756-0.718s-0.678-1.096-0.678-1.853
		c0-1.039,0.395-2.189,1.184-3.452c0.787-1.263,1.809-2.365,3.063-3.309c1.252-0.943,2.627-1.602,4.121-1.976
		c-0.719-0.976-1.744-1.463-3.074-1.463c-1.119,0-2.252,0.326-3.395,0.979c-1.143,0.652-2.146,1.541-3.012,2.664
		c-0.129,0.173-0.215,0.26-0.26,0.26c-0.055,0-0.092-0.027-0.109-0.082c0-0.155,0.373-0.607,1.119-1.355
		c1.795-1.79,3.672-2.685,5.629-2.685c1.521,0,2.678,0.533,3.471,1.6c1.104-0.319,2.371-0.479,3.801-0.479
		c0.738,0,1.414,0.046,2.023,0.137c0.648,0.101,2.234,0.41,4.758,0.93c2.105-0.921,4.129-1.381,6.07-1.381
		C170.12,294.592,171.118,294.983,171.118,295.768z M151.8,297.818c0-0.729-0.168-1.403-0.506-2.023
		c-2.041,0.337-3.941,1.39-5.701,3.158c-1.758,1.769-2.639,3.509-2.639,5.223c0,0.656,0.203,1.208,0.609,1.654
		c0.404,0.446,0.904,0.67,1.496,0.67c1.541,0,3.049-0.95,4.525-2.851S151.8,299.806,151.8,297.818z M170.899,295.795
		c0-0.265-0.258-0.487-0.771-0.67c-0.516-0.183-1.164-0.273-1.949-0.273c-1.949,0-3.842,0.41-5.674,1.23
		c0.229,0.036,0.834,0.146,1.818,0.328c1.459,0.282,2.754,0.424,3.883,0.424c0.738,0,1.373-0.103,1.9-0.308
		C170.636,296.321,170.899,296.077,170.899,295.795z"/>
	<linearGradient id="SVGID_10_" gradientUnits="userSpaceOnUse" x1="152.7842" y1="305.7139" x2="164.2354" y2="305.7139">
		<stop  offset="0" style="stop-color:#F9B26C"/>
		<stop  offset="0.3282" style="stop-color:#C28F5F"/>
		<stop  offset="0.5215" style="stop-color:#A77D59"/>
		<stop  offset="0.5395" style="stop-color:#AA7F5A"/>
		<stop  offset="0.8502" style="stop-color:#E3A467"/>
		<stop  offset="1" style="stop-color:#F9B26C"/>
	</linearGradient>
	<path display="inline" fill="url(#SVGID_10_)" d="M164.235,308.229c0,0.073-0.047,0.155-0.137,0.246l-0.59,0.809
		c-1.715,2.382-2.992,3.573-3.832,3.573c-0.438,0-0.797-0.157-1.074-0.472c-0.279-0.314-0.418-0.709-0.418-1.183
		c0-0.638,0.348-1.472,1.039-2.502c1.086-1.595,1.627-2.543,1.627-2.844c0-0.355-0.186-0.533-0.561-0.533
		c-0.547,0-1.293,0.538-2.242,1.613c-0.91,1.03-2.164,2.98-3.76,5.852c-0.273-0.055-0.506-0.082-0.697-0.082
		c-0.199,0-0.469,0.027-0.807,0.082l2.01-3.637c0.273-0.52,0.693-1.285,1.258-2.297c0.301-0.492,1.227-2.06,2.775-4.703l2.078-3.527
		c0.273,0.055,0.506,0.082,0.697,0.082c0.365,0,0.711-0.046,1.039-0.137c-0.947,1.522-2.359,3.801-4.238,6.836
		c-0.055,0.091-0.76,1.267-2.119,3.527c1.715-2.543,3.068-3.814,4.061-3.814c0.393,0,0.727,0.169,1.006,0.506
		c0.277,0.337,0.416,0.747,0.416,1.23c0,0.629-0.4,1.536-1.203,2.721c-0.893,1.321-1.34,2.151-1.34,2.488
		c0,0.392,0.197,0.588,0.59,0.588c0.711,0,1.889-1.15,3.531-3.45l0.426-0.589l0.246-0.302c0.045-0.091,0.1-0.137,0.164-0.137
		C164.216,308.175,164.235,308.193,164.235,308.229z"/>
	<linearGradient id="SVGID_11_" gradientUnits="userSpaceOnUse" x1="163.2021" y1="308.9883" x2="171.1533" y2="308.9883">
		<stop  offset="0" style="stop-color:#F9B26C"/>
		<stop  offset="0.3282" style="stop-color:#C28F5F"/>
		<stop  offset="0.5215" style="stop-color:#A77D59"/>
		<stop  offset="0.5395" style="stop-color:#AA7F5A"/>
		<stop  offset="0.8502" style="stop-color:#E3A467"/>
		<stop  offset="1" style="stop-color:#F9B26C"/>
	</linearGradient>
	<path display="inline" fill="url(#SVGID_11_)" d="M171.153,308.271c0,0.027-0.082,0.146-0.246,0.355l-0.59,0.736
		c-1.887,2.33-3.508,3.495-4.857,3.495c-0.639,0-1.174-0.23-1.607-0.69s-0.65-1.037-0.65-1.729c0-1.641,1.145-3.085,3.432-4.334
		c1.203-0.656,2.184-0.984,2.939-0.984c0.328,0,0.609,0.098,0.842,0.294s0.348,0.436,0.348,0.718c0,0.656-0.428,1.215-1.285,1.675
		c-0.855,0.46-2.287,0.891-4.293,1.292c-0.619,0.938-0.93,1.723-0.93,2.352c0,0.784,0.424,1.176,1.273,1.176
		c1.441,0,3.207-1.406,5.297-4.218c0.109-0.146,0.199-0.219,0.273-0.219C171.134,308.197,171.153,308.225,171.153,308.271z
		 M169.997,305.734c0-0.292-0.158-0.438-0.479-0.438c-0.482,0-1.119,0.335-1.906,1.005c-0.789,0.67-1.561,1.538-2.318,2.604
		c1.313-0.337,2.426-0.813,3.336-1.429C169.542,306.862,169.997,306.281,169.997,305.734z"/>
	<linearGradient id="SVGID_12_" gradientUnits="userSpaceOnUse" x1="174.6182" y1="307.6621" x2="181.1396" y2="307.6621">
		<stop  offset="0" style="stop-color:#F9B26C"/>
		<stop  offset="0.3282" style="stop-color:#C28F5F"/>
		<stop  offset="0.5215" style="stop-color:#A77D59"/>
		<stop  offset="0.5395" style="stop-color:#AA7F5A"/>
		<stop  offset="0.8502" style="stop-color:#E3A467"/>
		<stop  offset="1" style="stop-color:#F9B26C"/>
	</linearGradient>
	<path display="inline" fill="url(#SVGID_12_)" d="M181.14,305.119l-0.109,0.205h-1.791l-3.049,5.209
		c-0.373,0.629-0.561,1.13-0.561,1.504c0,0.41,0.215,0.615,0.645,0.615c0.83,0,2.23-1.447,4.203-4.341
		c0.063-0.091,0.117-0.137,0.164-0.137c0.055,0,0.082,0.027,0.082,0.082c-0.01,0.027-0.055,0.101-0.137,0.219l-0.59,0.809
		c-1.715,2.382-3.006,3.573-3.873,3.573c-0.43,0-0.787-0.155-1.074-0.465s-0.432-0.697-0.432-1.162c0-0.547,0.242-1.23,0.725-2.051
		l2.297-3.855h-1.395l0.137-0.205h1.367l1.6-2.652c0.273,0.073,0.533,0.109,0.779,0.109c0.256,0,0.52-0.036,0.793-0.109
		l-1.572,2.652H181.14z"/>
	<linearGradient id="SVGID_13_" gradientUnits="userSpaceOnUse" x1="178.0088" y1="305.7139" x2="189.46" y2="305.7139">
		<stop  offset="0" style="stop-color:#F9B26C"/>
		<stop  offset="0.3282" style="stop-color:#C28F5F"/>
		<stop  offset="0.5215" style="stop-color:#A77D59"/>
		<stop  offset="0.5395" style="stop-color:#AA7F5A"/>
		<stop  offset="0.8502" style="stop-color:#E3A467"/>
		<stop  offset="1" style="stop-color:#F9B26C"/>
	</linearGradient>
	<path display="inline" fill="url(#SVGID_13_)" d="M189.46,308.229c0,0.073-0.047,0.155-0.137,0.246l-0.59,0.809
		c-1.715,2.382-2.992,3.573-3.832,3.573c-0.438,0-0.797-0.157-1.074-0.472c-0.279-0.314-0.418-0.709-0.418-1.183
		c0-0.638,0.348-1.472,1.039-2.502c1.086-1.595,1.627-2.543,1.627-2.844c0-0.355-0.186-0.533-0.561-0.533
		c-0.547,0-1.293,0.538-2.242,1.613c-0.91,1.03-2.164,2.98-3.76,5.852c-0.273-0.055-0.506-0.082-0.697-0.082
		c-0.199,0-0.469,0.027-0.807,0.082l2.01-3.637c0.273-0.52,0.693-1.285,1.258-2.297c0.301-0.492,1.227-2.06,2.775-4.703l2.078-3.527
		c0.273,0.055,0.506,0.082,0.697,0.082c0.365,0,0.711-0.046,1.039-0.137c-0.947,1.522-2.359,3.801-4.238,6.836
		c-0.055,0.091-0.76,1.267-2.119,3.527c1.715-2.543,3.068-3.814,4.061-3.814c0.393,0,0.727,0.169,1.006,0.506
		c0.277,0.337,0.416,0.747,0.416,1.23c0,0.629-0.4,1.536-1.203,2.721c-0.893,1.321-1.34,2.151-1.34,2.488
		c0,0.392,0.197,0.588,0.59,0.588c0.711,0,1.889-1.15,3.531-3.45l0.426-0.589l0.246-0.302c0.045-0.091,0.1-0.137,0.164-0.137
		C189.44,308.175,189.46,308.193,189.46,308.229z"/>
	<linearGradient id="SVGID_14_" gradientUnits="userSpaceOnUse" x1="188.0029" y1="307.4365" x2="194.1631" y2="307.4365">
		<stop  offset="0" style="stop-color:#F9B26C"/>
		<stop  offset="0.3282" style="stop-color:#C28F5F"/>
		<stop  offset="0.5215" style="stop-color:#A77D59"/>
		<stop  offset="0.5395" style="stop-color:#AA7F5A"/>
		<stop  offset="0.8502" style="stop-color:#E3A467"/>
		<stop  offset="1" style="stop-color:#F9B26C"/>
	</linearGradient>
	<path display="inline" fill="url(#SVGID_14_)" d="M194.163,308.257c-0.01,0.027-0.055,0.101-0.137,0.219l-0.59,0.809
		c-1.715,2.382-3.023,3.573-3.928,3.573c-0.43,0-0.787-0.152-1.074-0.458s-0.432-0.686-0.432-1.142c0-0.528,0.314-1.331,0.943-2.406
		l2.133-3.623c0.283,0.063,0.506,0.096,0.67,0.096c0.246,0,0.594-0.032,1.039-0.096l-3.104,5.1c-0.445,0.738-0.67,1.308-0.67,1.709
		c0,0.41,0.215,0.615,0.645,0.615c0.813,0,2.24-1.447,4.285-4.341c0.045-0.091,0.09-0.137,0.137-0.137
		C194.136,308.175,194.163,308.202,194.163,308.257z M193.964,302.604c0,0.319-0.135,0.617-0.402,0.896
		c-0.27,0.278-0.563,0.417-0.883,0.417c-0.41,0-0.615-0.205-0.615-0.615c0-0.301,0.143-0.59,0.424-0.868
		c0.283-0.278,0.58-0.417,0.889-0.417C193.769,302.016,193.964,302.212,193.964,302.604z"/>
	<linearGradient id="SVGID_15_" gradientUnits="userSpaceOnUse" x1="193.376" y1="308.9268" x2="201.9834" y2="308.9268">
		<stop  offset="0" style="stop-color:#F9B26C"/>
		<stop  offset="0.3282" style="stop-color:#C28F5F"/>
		<stop  offset="0.5215" style="stop-color:#A77D59"/>
		<stop  offset="0.5395" style="stop-color:#AA7F5A"/>
		<stop  offset="0.8502" style="stop-color:#E3A467"/>
		<stop  offset="1" style="stop-color:#F9B26C"/>
	</linearGradient>
	<path display="inline" fill="url(#SVGID_15_)" d="M201.983,308.257c0,0.073-0.273,0.407-0.822,1.001
		c-0.693,0.769-1.348,1.152-1.959,1.152c-0.693,0-1.041-0.401-1.041-1.203c0-0.255,0.055-0.579,0.164-0.971
		c-0.574,0.501-1.041,0.998-1.4,1.49c-0.361,0.492-0.982,1.495-1.867,3.008c-0.482-0.036-0.766-0.055-0.848-0.055
		c-0.035,0-0.314,0.019-0.834,0.055l2.242-3.637c1.121-1.823,1.682-2.953,1.682-3.391c0-0.255-0.105-0.383-0.314-0.383
		c-0.512,0-1.439,0.982-2.781,2.946c-0.082,0.128-0.156,0.191-0.219,0.191c-0.037-0.009-0.055-0.036-0.055-0.082
		c0.008-0.046,0.027-0.082,0.055-0.109l0.246-0.343c1.406-1.872,2.359-2.809,2.861-2.809c0.73,0,1.096,0.47,1.096,1.408
		c0,0.702-0.373,1.632-1.121,2.789c0.475-0.547,0.926-0.993,1.354-1.34c0.348-0.812,0.777-1.49,1.293-2.037
		c0.514-0.547,0.977-0.82,1.387-0.82c0.283,0,0.424,0.123,0.424,0.369c0,0.438-0.633,1.062-1.9,1.873
		c-0.199,0.128-0.5,0.314-0.902,0.561l-0.164,0.137c-0.127,0.419-0.191,0.766-0.191,1.039c0,0.766,0.287,1.148,0.863,1.148
		c0.713,0,1.488-0.59,2.328-1.77c0.184-0.201,0.297-0.302,0.344-0.302C201.956,308.175,201.983,308.202,201.983,308.257z"/>
	<linearGradient id="SVGID_16_" gradientUnits="userSpaceOnUse" x1="200.8408" y1="305.7412" x2="214.376" y2="305.7412">
		<stop  offset="0" style="stop-color:#F9B26C"/>
		<stop  offset="0.3282" style="stop-color:#C28F5F"/>
		<stop  offset="0.5215" style="stop-color:#A77D59"/>
		<stop  offset="0.5395" style="stop-color:#AA7F5A"/>
		<stop  offset="0.8502" style="stop-color:#E3A467"/>
		<stop  offset="1" style="stop-color:#F9B26C"/>
	</linearGradient>
	<path display="inline" fill="url(#SVGID_16_)" d="M214.376,298.707c-3.418,5.433-5.572,8.905-6.467,10.418
		c-0.902,1.54-1.354,2.511-1.354,2.912c0,0.41,0.188,0.615,0.563,0.615c0.83,0,2.24-1.447,4.23-4.341
		c0.055-0.091,0.104-0.137,0.15-0.137c0.055,0,0.082,0.027,0.082,0.082c-0.01,0.027-0.055,0.101-0.137,0.219l-0.59,0.809
		c-1.725,2.382-2.996,3.573-3.818,3.573c-0.42,0-0.762-0.157-1.027-0.472c-0.264-0.314-0.396-0.718-0.396-1.21
		s0.164-1.062,0.492-1.709c-1.594,2.261-2.779,3.391-3.555,3.391c-0.482,0-0.889-0.207-1.217-0.622s-0.492-0.937-0.492-1.565
		c0-1.504,0.936-2.866,2.803-4.088c1.486-0.976,2.652-1.463,3.5-1.463c0.566,0,0.848,0.273,0.848,0.82
		c0,0.255-0.076,0.542-0.232,0.861l4.881-8.176c0.301,0.091,0.598,0.137,0.889,0.137
		C213.603,298.762,213.884,298.743,214.376,298.707z M207.786,306.049c0-0.483-0.223-0.725-0.67-0.725
		c-0.82,0-1.902,0.818-3.246,2.454c-1.346,1.636-2.018,2.955-2.018,3.958c0,0.61,0.252,0.916,0.752,0.916
		c0.73,0,1.982-1.267,3.76-3.801C207.313,307.484,207.786,306.55,207.786,306.049z"/>
	<linearGradient id="SVGID_17_" gradientUnits="userSpaceOnUse" x1="209.1123" y1="310.9297" x2="223.0576" y2="310.9297">
		<stop  offset="0" style="stop-color:#F9B26C"/>
		<stop  offset="0.3282" style="stop-color:#C28F5F"/>
		<stop  offset="0.5215" style="stop-color:#A77D59"/>
		<stop  offset="0.5395" style="stop-color:#AA7F5A"/>
		<stop  offset="0.8502" style="stop-color:#E3A467"/>
		<stop  offset="1" style="stop-color:#F9B26C"/>
	</linearGradient>
	<path display="inline" fill="url(#SVGID_17_)" d="M223.058,307.307c0,1.485-0.924,2.839-2.775,4.061
		c-1.504,0.993-2.68,1.49-3.527,1.49c-0.582,0-0.875-0.273-0.875-0.82c0-0.164,0.047-0.388,0.137-0.67l-5.236,8.736
		c-0.318-0.073-0.578-0.109-0.779-0.109c-0.301,0-0.596,0.055-0.889,0.164l11.225-18.457c0.246,0.082,0.488,0.123,0.725,0.123
		c0.246,0,0.547-0.041,0.902-0.123l-4.061,6.563c0.977-1.294,1.684-2.142,2.127-2.543c0.441-0.401,0.881-0.602,1.318-0.602
		c0.484,0,0.889,0.21,1.217,0.629S223.058,306.687,223.058,307.307z M222.046,306.213c0-0.593-0.264-0.889-0.793-0.889
		c-0.664,0-1.781,1.071-3.35,3.213c-1.211,1.659-1.818,2.798-1.818,3.418c0,0.465,0.215,0.697,0.643,0.697
		c0.84,0,1.936-0.818,3.289-2.454S222.046,307.233,222.046,306.213z"/>
	<linearGradient id="SVGID_18_" gradientUnits="userSpaceOnUse" x1="222.8525" y1="308.9883" x2="233.5928" y2="308.9883">
		<stop  offset="0" style="stop-color:#F9B26C"/>
		<stop  offset="0.3282" style="stop-color:#C28F5F"/>
		<stop  offset="0.5215" style="stop-color:#A77D59"/>
		<stop  offset="0.5395" style="stop-color:#AA7F5A"/>
		<stop  offset="0.8502" style="stop-color:#E3A467"/>
		<stop  offset="1" style="stop-color:#F9B26C"/>
	</linearGradient>
	<path display="inline" fill="url(#SVGID_18_)" d="M233.593,308.257c0,0.191-0.666,1.077-1.998,2.656
		c-1.078,1.296-1.926,1.944-2.547,1.944c-0.42,0-0.762-0.157-1.027-0.472c-0.264-0.314-0.396-0.709-0.396-1.183
		c0-0.492,0.146-1.025,0.438-1.6c-0.91,1.276-1.607,2.138-2.092,2.584c-0.482,0.446-0.951,0.67-1.408,0.67
		c-0.482,0-0.889-0.207-1.217-0.622s-0.492-0.937-0.492-1.565c0-1.75,1.236-3.3,3.705-4.648c1.086-0.602,1.961-0.902,2.625-0.902
		c0.566,0,0.848,0.273,0.848,0.82c0,0.155-0.035,0.36-0.109,0.615l0.697-1.326c0.273,0.063,0.516,0.096,0.725,0.096
		c0.246,0,0.566-0.032,0.957-0.096l-2.42,4.006c-0.838,1.403-1.258,2.329-1.258,2.775c0,0.429,0.178,0.643,0.535,0.643
		c0.363,0,0.949-0.418,1.752-1.253s1.619-1.864,2.451-3.088c0.055-0.091,0.104-0.137,0.15-0.137
		C233.565,308.175,233.593,308.202,233.593,308.257z M229.825,305.994c0-0.446-0.205-0.67-0.615-0.67
		c-0.838,0-1.939,0.82-3.301,2.461c-1.363,1.641-2.045,2.967-2.045,3.979c0,0.593,0.266,0.889,0.793,0.889
		c0.629,0,1.719-1.044,3.268-3.131C229.192,307.808,229.825,306.632,229.825,305.994z"/>
	<linearGradient id="SVGID_19_" gradientUnits="userSpaceOnUse" x1="227.1729" y1="313.4248" x2="242.9717" y2="313.4248">
		<stop  offset="0" style="stop-color:#F9B26C"/>
		<stop  offset="0.3282" style="stop-color:#C28F5F"/>
		<stop  offset="0.5215" style="stop-color:#A77D59"/>
		<stop  offset="0.5395" style="stop-color:#AA7F5A"/>
		<stop  offset="0.8502" style="stop-color:#E3A467"/>
		<stop  offset="1" style="stop-color:#F9B26C"/>
	</linearGradient>
	<path display="inline" fill="url(#SVGID_19_)" d="M242.972,308.271c0,0.146-0.494,0.77-1.479,1.87
		c-1.104,1.22-2.533,2.308-4.285,3.264l-0.684,1.244c-1.238,2.288-2.629,4.052-4.17,5.291c-1.477,1.194-2.752,1.791-3.828,1.791
		c-0.391,0-0.715-0.118-0.971-0.355c-0.254-0.237-0.383-0.528-0.383-0.875c0-1.868,2.111-3.765,6.33-5.688
		c0.912-0.419,1.5-0.702,1.764-0.848l2.324-4.279c-1.012,1.34-1.725,2.203-2.139,2.591c-0.416,0.388-0.842,0.581-1.279,0.581
		c-0.473,0-0.877-0.21-1.209-0.629c-0.334-0.419-0.5-0.93-0.5-1.531c0-1.577,1.031-3.008,3.09-4.293
		c1.377-0.856,2.457-1.285,3.24-1.285c0.547,0,0.82,0.301,0.82,0.902c0,0.164-0.041,0.36-0.123,0.588l0.766-1.381
		c0.246,0.063,0.461,0.096,0.643,0.096c0.238,0,0.584-0.032,1.039-0.096c-0.063,0.082-0.465,0.766-1.203,2.051l-3.391,5.852
		c1.195-0.674,2.148-1.324,2.865-1.952c0.715-0.628,1.523-1.534,2.426-2.717c0.137-0.183,0.229-0.273,0.273-0.273
		C242.95,308.197,242.972,308.225,242.972,308.271z M235.13,314.197c-0.172,0.101-0.688,0.36-1.545,0.779
		c-4.156,2.06-6.234,3.91-6.234,5.551c0,0.282,0.105,0.52,0.314,0.711c0.211,0.191,0.479,0.287,0.807,0.287
		c1.004,0,1.979-0.513,2.926-1.538c0.949-1.025,2.139-2.864,3.568-5.517L235.13,314.197z M239.464,306.021
		c0-0.465-0.223-0.697-0.67-0.697c-0.82,0-1.906,0.818-3.26,2.454s-2.031,2.955-2.031,3.958c0,0.61,0.266,0.916,0.793,0.916
		c0.539,0,1.449-0.812,2.734-2.434C238.653,308.168,239.464,306.769,239.464,306.021z"/>
	<linearGradient id="SVGID_20_" gradientUnits="userSpaceOnUse" x1="241.9385" y1="308.9883" x2="249.8896" y2="308.9883">
		<stop  offset="0" style="stop-color:#F9B26C"/>
		<stop  offset="0.3282" style="stop-color:#C28F5F"/>
		<stop  offset="0.5215" style="stop-color:#A77D59"/>
		<stop  offset="0.5395" style="stop-color:#AA7F5A"/>
		<stop  offset="0.8502" style="stop-color:#E3A467"/>
		<stop  offset="1" style="stop-color:#F9B26C"/>
	</linearGradient>
	<path display="inline" fill="url(#SVGID_20_)" d="M249.89,308.271c0,0.027-0.082,0.146-0.246,0.355l-0.59,0.736
		c-1.887,2.33-3.508,3.495-4.857,3.495c-0.639,0-1.174-0.23-1.607-0.69s-0.65-1.037-0.65-1.729c0-1.641,1.145-3.085,3.432-4.334
		c1.203-0.656,2.184-0.984,2.939-0.984c0.328,0,0.609,0.098,0.842,0.294s0.348,0.436,0.348,0.718c0,0.656-0.428,1.215-1.285,1.675
		c-0.855,0.46-2.287,0.891-4.293,1.292c-0.619,0.938-0.93,1.723-0.93,2.352c0,0.784,0.424,1.176,1.273,1.176
		c1.441,0,3.207-1.406,5.297-4.218c0.109-0.146,0.199-0.219,0.273-0.219C249.87,308.197,249.89,308.225,249.89,308.271z
		 M248.733,305.734c0-0.292-0.158-0.438-0.479-0.438c-0.482,0-1.119,0.335-1.906,1.005c-0.789,0.67-1.561,1.538-2.318,2.604
		c1.313-0.337,2.426-0.813,3.336-1.429C248.278,306.862,248.733,306.281,248.733,305.734z"/>
	<linearGradient id="SVGID_21_" gradientUnits="userSpaceOnUse" x1="254.2158" y1="303.752" x2="280.7666" y2="303.752">
		<stop  offset="0" style="stop-color:#F9B26C"/>
		<stop  offset="0.3282" style="stop-color:#C28F5F"/>
		<stop  offset="0.5215" style="stop-color:#A77D59"/>
		<stop  offset="0.5395" style="stop-color:#AA7F5A"/>
		<stop  offset="0.8502" style="stop-color:#E3A467"/>
		<stop  offset="1" style="stop-color:#F9B26C"/>
	</linearGradient>
	<path display="inline" fill="url(#SVGID_21_)" d="M280.767,294.455c0,0.156-0.375,0.401-1.127,0.734
		c-0.752,0.335-1.611,0.634-2.578,0.899c-2.27,1.621-4.516,4.513-6.74,8.675l-0.219,0.41c0.109,0.019,0.238,0.027,0.383,0.027
		c1.113,0,2.139-0.342,3.076-1.025c0.939-0.684,1.51-1.509,1.709-2.475c0.037-0.146,0.088-0.219,0.15-0.219
		c0.055,0,0.082,0.036,0.082,0.109c0,0.556-0.301,1.189-0.902,1.9c-1.074,1.294-2.465,1.941-4.17,1.941
		c-0.164,0-0.322-0.009-0.479-0.027l-0.383,0.752c-0.664,1.276-1.252,2.224-1.764,2.844c-0.473,0.583-1.121,1.167-1.941,1.75
		c-2.287,1.622-4.629,2.434-7.027,2.434c-1.34,0-2.445-0.282-3.314-0.848c-0.871-0.565-1.307-1.29-1.307-2.174
		c0-0.474,0.135-0.877,0.404-1.21c0.268-0.333,0.594-0.499,0.977-0.499c0.594,0,0.889,0.31,0.889,0.93
		c0,0.301-0.098,0.556-0.293,0.766c-0.197,0.21-0.436,0.314-0.719,0.314c-0.428,0-0.643-0.205-0.643-0.615v-0.273
		c0-0.082-0.027-0.128-0.082-0.137c-0.164,0-0.246,0.232-0.246,0.697c0,0.784,0.383,1.442,1.148,1.976s1.719,0.8,2.857,0.8
		c2.744,0,5.215-1.372,7.41-4.115c0.648-0.812,1.518-2.064,2.611-3.76c-1.549-0.675-2.324-1.764-2.324-3.268
		c0-1.823,1.025-3.177,3.076-4.061c1.039-0.456,2.676-0.87,4.908-1.244l1.504-0.246l1.285-0.273
		c0.492-0.364,1.133-0.727,1.922-1.087c0.787-0.36,1.332-0.54,1.633-0.54C280.69,294.318,280.767,294.364,280.767,294.455z
		 M276.651,296.198c-0.209,0.046-0.52,0.118-0.93,0.219c-0.336,0.091-0.828,0.214-1.477,0.369c-2.223,0.528-3.994,1.305-5.311,2.329
		c-1.318,1.024-1.977,2.133-1.977,3.326c0,1.147,0.561,1.958,1.682,2.432C271.056,301.021,273.726,298.129,276.651,296.198z"/>
	<linearGradient id="SVGID_22_" gradientUnits="userSpaceOnUse" x1="276.8154" y1="308.9883" x2="292.8604" y2="308.9883">
		<stop  offset="0" style="stop-color:#F9B26C"/>
		<stop  offset="0.3282" style="stop-color:#C28F5F"/>
		<stop  offset="0.5215" style="stop-color:#A77D59"/>
		<stop  offset="0.5395" style="stop-color:#AA7F5A"/>
		<stop  offset="0.8502" style="stop-color:#E3A467"/>
		<stop  offset="1" style="stop-color:#F9B26C"/>
	</linearGradient>
	<path display="inline" fill="url(#SVGID_22_)" d="M292.86,308.257c-0.01,0.027-0.055,0.101-0.137,0.219l-0.59,0.809
		c-1.715,2.382-2.982,3.573-3.805,3.573c-0.43,0-0.779-0.159-1.055-0.479c-0.273-0.319-0.41-0.729-0.41-1.23
		c0-0.511,0.174-1.062,0.52-1.654c0.064-0.109,0.396-0.597,0.998-1.463c0.766-1.094,1.148-1.81,1.148-2.146
		c0-0.374-0.186-0.561-0.561-0.561c-1.203,0-3.268,2.47-6.193,7.41c-0.182-0.036-0.432-0.055-0.752-0.055
		c-0.373,0-0.691,0.019-0.957,0.055l1.941-3.076c1.268-2.023,1.9-3.263,1.9-3.719c0-0.41-0.168-0.615-0.506-0.615
		c-0.5,0-1.32,0.72-2.461,2.16c-1.139,1.44-2.27,3.19-3.391,5.25c-0.209-0.036-0.479-0.055-0.807-0.055
		c-0.355,0-0.664,0.019-0.93,0.055l1.955-3.076c1.35-2.114,2.023-3.423,2.023-3.924c0-0.273-0.105-0.41-0.314-0.41
		c-0.447,0-1.375,0.978-2.781,2.933c-0.092,0.128-0.164,0.191-0.219,0.191c-0.037-0.009-0.055-0.036-0.055-0.082
		c0-0.082,0.42-0.65,1.26-1.705c0.82-1.028,1.455-1.542,1.902-1.542c0.293,0,0.543,0.139,0.754,0.417
		c0.209,0.278,0.314,0.608,0.314,0.991c0,0.528-0.268,1.263-0.807,2.201c1.641-2.406,2.863-3.609,3.664-3.609
		c0.383,0,0.697,0.155,0.943,0.465s0.369,0.697,0.369,1.162c0,0.52-0.24,1.181-0.725,1.982c1.732-2.406,3.031-3.609,3.896-3.609
		c0.393,0,0.723,0.169,0.992,0.506c0.268,0.337,0.402,0.747,0.402,1.23c0,0.565-0.223,1.226-0.67,1.982
		c-0.008,0.009-0.4,0.593-1.176,1.75c-0.445,0.656-0.67,1.157-0.67,1.504c0,0.374,0.188,0.561,0.563,0.561
		c0.711,0,1.889-1.15,3.531-3.45l0.424-0.589l0.248-0.302c0.045-0.091,0.09-0.137,0.137-0.137
		C292.833,308.175,292.86,308.202,292.86,308.257z"/>
	<linearGradient id="SVGID_23_" gradientUnits="userSpaceOnUse" x1="291.7588" y1="308.9883" x2="302.499" y2="308.9883">
		<stop  offset="0" style="stop-color:#F9B26C"/>
		<stop  offset="0.3282" style="stop-color:#C28F5F"/>
		<stop  offset="0.5215" style="stop-color:#A77D59"/>
		<stop  offset="0.5395" style="stop-color:#AA7F5A"/>
		<stop  offset="0.8502" style="stop-color:#E3A467"/>
		<stop  offset="1" style="stop-color:#F9B26C"/>
	</linearGradient>
	<path display="inline" fill="url(#SVGID_23_)" d="M302.499,308.257c0,0.191-0.666,1.077-1.998,2.656
		c-1.078,1.296-1.926,1.944-2.547,1.944c-0.42,0-0.762-0.157-1.027-0.472c-0.264-0.314-0.396-0.709-0.396-1.183
		c0-0.492,0.146-1.025,0.438-1.6c-0.91,1.276-1.607,2.138-2.092,2.584c-0.482,0.446-0.951,0.67-1.408,0.67
		c-0.482,0-0.889-0.207-1.217-0.622s-0.492-0.937-0.492-1.565c0-1.75,1.236-3.3,3.705-4.648c1.086-0.602,1.961-0.902,2.625-0.902
		c0.566,0,0.848,0.273,0.848,0.82c0,0.155-0.035,0.36-0.109,0.615l0.697-1.326c0.273,0.063,0.516,0.096,0.725,0.096
		c0.246,0,0.566-0.032,0.957-0.096l-2.42,4.006c-0.838,1.403-1.258,2.329-1.258,2.775c0,0.429,0.178,0.643,0.535,0.643
		c0.363,0,0.949-0.418,1.752-1.253s1.619-1.864,2.451-3.088c0.055-0.091,0.104-0.137,0.15-0.137
		C302.472,308.175,302.499,308.202,302.499,308.257z M298.731,305.994c0-0.446-0.205-0.67-0.615-0.67
		c-0.838,0-1.939,0.82-3.301,2.461c-1.363,1.641-2.045,2.967-2.045,3.979c0,0.593,0.266,0.889,0.793,0.889
		c0.629,0,1.719-1.044,3.268-3.131C298.099,307.808,298.731,306.632,298.731,305.994z"/>
	<linearGradient id="SVGID_24_" gradientUnits="userSpaceOnUse" x1="301.3975" y1="305.7412" x2="314.9326" y2="305.7412">
		<stop  offset="0" style="stop-color:#F9B26C"/>
		<stop  offset="0.3282" style="stop-color:#C28F5F"/>
		<stop  offset="0.5215" style="stop-color:#A77D59"/>
		<stop  offset="0.5395" style="stop-color:#AA7F5A"/>
		<stop  offset="0.8502" style="stop-color:#E3A467"/>
		<stop  offset="1" style="stop-color:#F9B26C"/>
	</linearGradient>
	<path display="inline" fill="url(#SVGID_24_)" d="M314.933,298.707c-3.418,5.433-5.572,8.905-6.467,10.418
		c-0.902,1.54-1.354,2.511-1.354,2.912c0,0.41,0.188,0.615,0.563,0.615c0.83,0,2.24-1.447,4.23-4.341
		c0.055-0.091,0.104-0.137,0.15-0.137c0.055,0,0.082,0.027,0.082,0.082c-0.01,0.027-0.055,0.101-0.137,0.219l-0.59,0.809
		c-1.725,2.382-2.996,3.573-3.818,3.573c-0.42,0-0.762-0.157-1.027-0.472c-0.264-0.314-0.396-0.718-0.396-1.21
		s0.164-1.062,0.492-1.709c-1.594,2.261-2.779,3.391-3.555,3.391c-0.482,0-0.889-0.207-1.217-0.622s-0.492-0.937-0.492-1.565
		c0-1.504,0.936-2.866,2.803-4.088c1.486-0.976,2.652-1.463,3.5-1.463c0.566,0,0.848,0.273,0.848,0.82
		c0,0.255-0.076,0.542-0.232,0.861l4.881-8.176c0.301,0.091,0.598,0.137,0.889,0.137
		C314.159,298.762,314.44,298.743,314.933,298.707z M308.343,306.049c0-0.483-0.223-0.725-0.67-0.725
		c-0.82,0-1.902,0.818-3.246,2.454c-1.346,1.636-2.018,2.955-2.018,3.958c0,0.61,0.252,0.916,0.752,0.916
		c0.73,0,1.982-1.267,3.76-3.801C307.87,307.484,308.343,306.55,308.343,306.049z"/>
	<linearGradient id="SVGID_25_" gradientUnits="userSpaceOnUse" x1="311.1045" y1="308.9883" x2="319.0557" y2="308.9883">
		<stop  offset="0" style="stop-color:#F9B26C"/>
		<stop  offset="0.3282" style="stop-color:#C28F5F"/>
		<stop  offset="0.5215" style="stop-color:#A77D59"/>
		<stop  offset="0.5395" style="stop-color:#AA7F5A"/>
		<stop  offset="0.8502" style="stop-color:#E3A467"/>
		<stop  offset="1" style="stop-color:#F9B26C"/>
	</linearGradient>
	<path display="inline" fill="url(#SVGID_25_)" d="M319.056,308.271c0,0.027-0.082,0.146-0.246,0.355l-0.59,0.736
		c-1.887,2.33-3.508,3.495-4.857,3.495c-0.639,0-1.174-0.23-1.607-0.69s-0.65-1.037-0.65-1.729c0-1.641,1.145-3.085,3.432-4.334
		c1.203-0.656,2.184-0.984,2.939-0.984c0.328,0,0.609,0.098,0.842,0.294s0.348,0.436,0.348,0.718c0,0.656-0.428,1.215-1.285,1.675
		c-0.855,0.46-2.287,0.891-4.293,1.292c-0.619,0.938-0.93,1.723-0.93,2.352c0,0.784,0.424,1.176,1.273,1.176
		c1.441,0,3.207-1.406,5.297-4.218c0.109-0.146,0.199-0.219,0.273-0.219C319.036,308.197,319.056,308.225,319.056,308.271z
		 M317.899,305.734c0-0.292-0.158-0.438-0.479-0.438c-0.482,0-1.119,0.335-1.906,1.005c-0.789,0.67-1.561,1.538-2.318,2.604
		c1.313-0.337,2.426-0.813,3.336-1.429C317.444,306.862,317.899,306.281,317.899,305.734z"/>
	<linearGradient id="SVGID_26_" gradientUnits="userSpaceOnUse" x1="312.9307" y1="308.6123" x2="333.2666" y2="308.6123">
		<stop  offset="0" style="stop-color:#F9B26C"/>
		<stop  offset="0.3282" style="stop-color:#C28F5F"/>
		<stop  offset="0.5215" style="stop-color:#A77D59"/>
		<stop  offset="0.5395" style="stop-color:#AA7F5A"/>
		<stop  offset="0.8502" style="stop-color:#E3A467"/>
		<stop  offset="1" style="stop-color:#F9B26C"/>
	</linearGradient>
	<path display="inline" fill="url(#SVGID_26_)" d="M333.267,298.461c0,0.812-0.574,1.83-1.723,3.056s-2.654,2.427-4.514,3.603h2.352
		l-0.123,0.205h-2.379l-1.121,2.174c-1.377,2.688-2.553,4.715-3.529,6.077c-0.975,1.362-2.102,2.577-3.377,3.644
		c-1.76,1.458-3.396,2.188-4.91,2.188c-0.676,0-1.012-0.098-1.012-0.294c0-0.091,0.049-0.137,0.15-0.137
		c0.072,0,0.127,0.009,0.164,0.027c0.328,0.096,0.639,0.144,0.93,0.144c1.23,0,2.471-0.552,3.721-1.654
		c0.766-0.675,1.436-1.468,2.01-2.379c0.475-0.729,1.596-2.716,3.363-5.961l2.107-3.828h-1.463l0.109-0.205h1.49
		c1.166-1.978,2.457-3.689,3.871-5.134c1.412-1.444,2.502-2.167,3.268-2.167C333.062,297.818,333.267,298.032,333.267,298.461z
		 M333.103,298.434c0-0.301-0.15-0.451-0.451-0.451c-0.693,0-1.637,0.793-2.83,2.379c-0.594,0.802-1.486,2.297-2.682,4.484
		c1.496-1.039,2.863-2.224,4.104-3.555S333.103,299.008,333.103,298.434z"/>
	<linearGradient id="SVGID_27_" gradientUnits="userSpaceOnUse" x1="326.6631" y1="308.9883" x2="335.8174" y2="308.9883">
		<stop  offset="0" style="stop-color:#F9B26C"/>
		<stop  offset="0.3282" style="stop-color:#C28F5F"/>
		<stop  offset="0.5215" style="stop-color:#A77D59"/>
		<stop  offset="0.5395" style="stop-color:#AA7F5A"/>
		<stop  offset="0.8502" style="stop-color:#E3A467"/>
		<stop  offset="1" style="stop-color:#F9B26C"/>
	</linearGradient>
	<path display="inline" fill="url(#SVGID_27_)" d="M335.817,308.243c0,0.146-0.27,0.486-0.809,1.022
		c-0.803,0.8-1.541,1.199-2.215,1.199c-0.283,0-0.535-0.055-0.754-0.164c-1.203,1.704-2.334,2.557-3.393,2.557
		c-0.547,0-1.016-0.226-1.402-0.677c-0.389-0.451-0.582-0.991-0.582-1.62c0-1.403,0.922-2.757,2.762-4.061
		c1.295-0.921,2.361-1.381,3.199-1.381c0.785,0,1.176,0.419,1.176,1.258c0,1.048-0.551,2.311-1.654,3.787
		c0.184,0.109,0.389,0.164,0.615,0.164c0.41,0,0.891-0.19,1.438-0.572c0.549-0.382,0.996-0.84,1.344-1.376
		c0.102-0.128,0.174-0.191,0.221-0.191C335.798,308.188,335.817,308.207,335.817,308.243z M333.595,306.404
		c0-0.738-0.332-1.107-0.998-1.107c-0.828,0-1.84,0.793-3.035,2.379c-1.193,1.586-1.791,2.921-1.791,4.006
		c0,0.629,0.301,0.943,0.902,0.943c0.984,0,2.061-0.812,3.227-2.434c-0.264-0.292-0.396-0.593-0.396-0.902
		c0-0.446,0.178-0.907,0.533-1.381s0.703-0.711,1.039-0.711c0.146,0,0.246,0.091,0.301,0.273
		C333.522,307.151,333.595,306.796,333.595,306.404z"/>
	<linearGradient id="SVGID_28_" gradientUnits="userSpaceOnUse" x1="335.0303" y1="308.9268" x2="343.6377" y2="308.9268">
		<stop  offset="0" style="stop-color:#F9B26C"/>
		<stop  offset="0.3282" style="stop-color:#C28F5F"/>
		<stop  offset="0.5215" style="stop-color:#A77D59"/>
		<stop  offset="0.5395" style="stop-color:#AA7F5A"/>
		<stop  offset="0.8502" style="stop-color:#E3A467"/>
		<stop  offset="1" style="stop-color:#F9B26C"/>
	</linearGradient>
	<path display="inline" fill="url(#SVGID_28_)" d="M343.638,308.257c0,0.073-0.273,0.407-0.822,1.001
		c-0.693,0.769-1.348,1.152-1.959,1.152c-0.693,0-1.041-0.401-1.041-1.203c0-0.255,0.055-0.579,0.164-0.971
		c-0.574,0.501-1.041,0.998-1.4,1.49c-0.361,0.492-0.982,1.495-1.867,3.008c-0.482-0.036-0.766-0.055-0.848-0.055
		c-0.035,0-0.314,0.019-0.834,0.055l2.242-3.637c1.121-1.823,1.682-2.953,1.682-3.391c0-0.255-0.105-0.383-0.314-0.383
		c-0.512,0-1.439,0.982-2.781,2.946c-0.082,0.128-0.156,0.191-0.219,0.191c-0.037-0.009-0.055-0.036-0.055-0.082
		c0.008-0.046,0.027-0.082,0.055-0.109l0.246-0.343c1.406-1.872,2.359-2.809,2.861-2.809c0.73,0,1.096,0.47,1.096,1.408
		c0,0.702-0.373,1.632-1.121,2.789c0.475-0.547,0.926-0.993,1.354-1.34c0.348-0.812,0.777-1.49,1.293-2.037
		c0.514-0.547,0.977-0.82,1.387-0.82c0.283,0,0.424,0.123,0.424,0.369c0,0.438-0.633,1.062-1.9,1.873
		c-0.199,0.128-0.5,0.314-0.902,0.561l-0.164,0.137c-0.127,0.419-0.191,0.766-0.191,1.039c0,0.766,0.287,1.148,0.863,1.148
		c0.713,0,1.488-0.59,2.328-1.77c0.184-0.201,0.297-0.302,0.344-0.302C343.61,308.175,343.638,308.202,343.638,308.257z"/>
	<linearGradient id="SVGID_29_" gradientUnits="userSpaceOnUse" x1="347.0889" y1="308.9883" x2="360.4541" y2="308.9883">
		<stop  offset="0" style="stop-color:#F9B26C"/>
		<stop  offset="0.3282" style="stop-color:#C28F5F"/>
		<stop  offset="0.5215" style="stop-color:#A77D59"/>
		<stop  offset="0.5395" style="stop-color:#AA7F5A"/>
		<stop  offset="0.8502" style="stop-color:#E3A467"/>
		<stop  offset="1" style="stop-color:#F9B26C"/>
	</linearGradient>
	<path display="inline" fill="url(#SVGID_29_)" d="M360.454,308.229c0,0.101-0.293,0.453-0.877,1.056
		c-0.785,0.832-1.475,1.248-2.068,1.248c-0.402,0-0.74-0.219-1.014-0.656c-0.811,1.121-1.471,1.898-1.982,2.331
		c-0.51,0.433-1.025,0.649-1.545,0.649c-0.465,0-0.852-0.157-1.162-0.472c-0.309-0.314-0.465-0.699-0.465-1.155
		c0-0.383,0.123-0.843,0.369-1.381c-1.367,2.005-2.441,3.008-3.227,3.008c-0.391,0-0.723-0.159-0.99-0.479
		c-0.27-0.319-0.404-0.702-0.404-1.148c0-0.52,0.27-1.239,0.807-2.16l2.27-3.842c0.365,0.063,0.635,0.096,0.807,0.096
		c0.156,0,0.457-0.032,0.902-0.096l-3.104,5.072c-0.492,0.793-0.738,1.372-0.738,1.736c0,0.41,0.188,0.615,0.561,0.615
		c0.41,0,1.023-0.456,1.84-1.367c0.814-0.911,1.625-2.051,2.426-3.418l1.531-2.639c0.492,0.046,0.803,0.068,0.93,0.068
		c0.32,0,0.58-0.022,0.779-0.068l-2.857,4.621c-0.629,1.03-0.943,1.741-0.943,2.133c0,0.446,0.232,0.67,0.697,0.67
		c0.93,0,2.061-0.979,3.391-2.939c-0.055-0.337-0.082-0.588-0.082-0.752c0-0.812,0.254-1.654,0.76-2.529s0.996-1.313,1.469-1.313
		c0.211,0,0.314,0.142,0.314,0.424c0,0.766-0.746,2.165-2.242,4.197c0.229,0.41,0.529,0.615,0.904,0.615
		c0.686,0,1.525-0.617,2.52-1.852c0.184-0.22,0.307-0.329,0.371-0.329C360.427,308.175,360.444,308.193,360.454,308.229z"/>
	<linearGradient id="SVGID_30_" gradientUnits="userSpaceOnUse" x1="359.3799" y1="308.9883" x2="367.3311" y2="308.9883">
		<stop  offset="0" style="stop-color:#F9B26C"/>
		<stop  offset="0.3282" style="stop-color:#C28F5F"/>
		<stop  offset="0.5215" style="stop-color:#A77D59"/>
		<stop  offset="0.5395" style="stop-color:#AA7F5A"/>
		<stop  offset="0.8502" style="stop-color:#E3A467"/>
		<stop  offset="1" style="stop-color:#F9B26C"/>
	</linearGradient>
	<path display="inline" fill="url(#SVGID_30_)" d="M367.331,308.271c0,0.027-0.082,0.146-0.246,0.355l-0.59,0.736
		c-1.887,2.33-3.508,3.495-4.857,3.495c-0.639,0-1.174-0.23-1.607-0.69s-0.65-1.037-0.65-1.729c0-1.641,1.145-3.085,3.432-4.334
		c1.203-0.656,2.184-0.984,2.939-0.984c0.328,0,0.609,0.098,0.842,0.294s0.348,0.436,0.348,0.718c0,0.656-0.428,1.215-1.285,1.675
		c-0.855,0.46-2.287,0.891-4.293,1.292c-0.619,0.938-0.93,1.723-0.93,2.352c0,0.784,0.424,1.176,1.273,1.176
		c1.441,0,3.207-1.406,5.297-4.218c0.109-0.146,0.199-0.219,0.273-0.219C367.312,308.197,367.331,308.225,367.331,308.271z
		 M366.175,305.734c0-0.292-0.158-0.438-0.479-0.438c-0.482,0-1.119,0.335-1.906,1.005c-0.789,0.67-1.561,1.538-2.318,2.604
		c1.313-0.337,2.426-0.813,3.336-1.429C365.72,306.862,366.175,306.281,366.175,305.734z"/>
	<linearGradient id="SVGID_31_" gradientUnits="userSpaceOnUse" x1="366.0654" y1="305.7822" x2="374.665" y2="305.7822">
		<stop  offset="0" style="stop-color:#F9B26C"/>
		<stop  offset="0.3282" style="stop-color:#C28F5F"/>
		<stop  offset="0.5215" style="stop-color:#A77D59"/>
		<stop  offset="0.5395" style="stop-color:#AA7F5A"/>
		<stop  offset="0.8502" style="stop-color:#E3A467"/>
		<stop  offset="1" style="stop-color:#F9B26C"/>
	</linearGradient>
	<path display="inline" fill="url(#SVGID_31_)" d="M374.665,298.734l-6.139,9.693c0.957-1.313,1.674-2.192,2.146-2.639
		c0.475-0.446,0.926-0.67,1.354-0.67c0.512,0,0.928,0.207,1.252,0.622c0.322,0.415,0.484,0.937,0.484,1.565
		c0,1.376-0.875,2.729-2.625,4.061c-1.303,0.993-2.461,1.49-3.473,1.49c-0.473,0-0.859-0.18-1.154-0.54
		c-0.297-0.36-0.445-0.827-0.445-1.401c0-0.684,0.438-1.728,1.313-3.131l5.66-9.078c0.246,0.073,0.512,0.109,0.793,0.109
		C374.05,298.816,374.329,298.789,374.665,298.734z M372.765,306.24c0-0.61-0.254-0.916-0.766-0.916
		c-0.664,0-1.799,1.099-3.404,3.295c-1.203,1.641-1.805,2.743-1.805,3.309c0,0.483,0.238,0.725,0.711,0.725
		c0.82,0,1.902-0.818,3.248-2.454C372.093,308.563,372.765,307.243,372.765,306.24z"/>
	<linearGradient id="SVGID_32_" gradientUnits="userSpaceOnUse" x1="375.8955" y1="309.207" x2="382.1709" y2="309.207">
		<stop  offset="0" style="stop-color:#F9B26C"/>
		<stop  offset="0.3282" style="stop-color:#C28F5F"/>
		<stop  offset="0.5215" style="stop-color:#A77D59"/>
		<stop  offset="0.5395" style="stop-color:#AA7F5A"/>
		<stop  offset="0.8502" style="stop-color:#E3A467"/>
		<stop  offset="1" style="stop-color:#F9B26C"/>
	</linearGradient>
	<path display="inline" fill="url(#SVGID_32_)" d="M382.171,308.831c0,0.108-0.373,0.278-1.121,0.509
		c-0.746,0.23-1.316,0.346-1.709,0.346c-0.363,0-0.746-0.046-1.148-0.137c-0.473-0.109-0.824-0.164-1.053-0.164
		c-0.383,0-0.746,0.091-1.094,0.273c-0.018,0.019-0.045,0.027-0.082,0.027c-0.035-0.01-0.059-0.031-0.068-0.062
		c0-0.108,0.354-0.285,1.061-0.529c0.705-0.244,1.223-0.366,1.551-0.366c0.191,0,0.584,0.068,1.176,0.205
		c0.502,0.109,0.867,0.164,1.094,0.164c0.43,0,0.83-0.091,1.203-0.273c0.055-0.036,0.102-0.055,0.137-0.055
		C382.153,308.77,382.171,308.79,382.171,308.831z"/>
	<linearGradient id="SVGID_33_" gradientUnits="userSpaceOnUse" x1="383.5928" y1="308.9883" x2="394.333" y2="308.9883">
		<stop  offset="0" style="stop-color:#F9B26C"/>
		<stop  offset="0.3282" style="stop-color:#C28F5F"/>
		<stop  offset="0.5215" style="stop-color:#A77D59"/>
		<stop  offset="0.5395" style="stop-color:#AA7F5A"/>
		<stop  offset="0.8502" style="stop-color:#E3A467"/>
		<stop  offset="1" style="stop-color:#F9B26C"/>
	</linearGradient>
	<path display="inline" fill="url(#SVGID_33_)" d="M394.333,308.257c0,0.191-0.666,1.077-1.998,2.656
		c-1.078,1.296-1.926,1.944-2.547,1.944c-0.42,0-0.762-0.157-1.027-0.472c-0.264-0.314-0.396-0.709-0.396-1.183
		c0-0.492,0.146-1.025,0.438-1.6c-0.91,1.276-1.607,2.138-2.092,2.584c-0.482,0.446-0.951,0.67-1.408,0.67
		c-0.482,0-0.889-0.207-1.217-0.622s-0.492-0.937-0.492-1.565c0-1.75,1.236-3.3,3.705-4.648c1.086-0.602,1.961-0.902,2.625-0.902
		c0.566,0,0.848,0.273,0.848,0.82c0,0.155-0.035,0.36-0.109,0.615l0.697-1.326c0.273,0.063,0.516,0.096,0.725,0.096
		c0.246,0,0.566-0.032,0.957-0.096l-2.42,4.006c-0.838,1.403-1.258,2.329-1.258,2.775c0,0.429,0.178,0.643,0.535,0.643
		c0.363,0,0.949-0.418,1.752-1.253s1.619-1.864,2.451-3.088c0.055-0.091,0.104-0.137,0.15-0.137
		C394.306,308.175,394.333,308.202,394.333,308.257z M390.565,305.994c0-0.446-0.205-0.67-0.615-0.67
		c-0.838,0-1.939,0.82-3.301,2.461c-1.363,1.641-2.045,2.967-2.045,3.979c0,0.593,0.266,0.889,0.793,0.889
		c0.629,0,1.719-1.044,3.268-3.131C389.933,307.808,390.565,306.632,390.565,305.994z"/>
	<linearGradient id="SVGID_34_" gradientUnits="userSpaceOnUse" x1="386.915" y1="310.9297" x2="400.8604" y2="310.9297">
		<stop  offset="0" style="stop-color:#F9B26C"/>
		<stop  offset="0.3282" style="stop-color:#C28F5F"/>
		<stop  offset="0.5215" style="stop-color:#A77D59"/>
		<stop  offset="0.5395" style="stop-color:#AA7F5A"/>
		<stop  offset="0.8502" style="stop-color:#E3A467"/>
		<stop  offset="1" style="stop-color:#F9B26C"/>
	</linearGradient>
	<path display="inline" fill="url(#SVGID_34_)" d="M400.86,307.307c0,1.485-0.924,2.839-2.775,4.061
		c-1.504,0.993-2.68,1.49-3.527,1.49c-0.582,0-0.875-0.273-0.875-0.82c0-0.164,0.047-0.388,0.137-0.67l-5.236,8.736
		c-0.318-0.073-0.578-0.109-0.779-0.109c-0.301,0-0.596,0.055-0.889,0.164l11.225-18.457c0.246,0.082,0.488,0.123,0.725,0.123
		c0.246,0,0.547-0.041,0.902-0.123l-4.061,6.563c0.977-1.294,1.684-2.142,2.127-2.543c0.441-0.401,0.881-0.602,1.318-0.602
		c0.484,0,0.889,0.21,1.217,0.629S400.86,306.687,400.86,307.307z M399.849,306.213c0-0.593-0.264-0.889-0.793-0.889
		c-0.664,0-1.781,1.071-3.35,3.213c-1.211,1.659-1.818,2.798-1.818,3.418c0,0.465,0.215,0.697,0.643,0.697
		c0.84,0,1.936-0.818,3.289-2.454S399.849,307.233,399.849,306.213z"/>
	<linearGradient id="SVGID_35_" gradientUnits="userSpaceOnUse" x1="394.3389" y1="310.9297" x2="408.2842" y2="310.9297">
		<stop  offset="0" style="stop-color:#F9B26C"/>
		<stop  offset="0.3282" style="stop-color:#C28F5F"/>
		<stop  offset="0.5215" style="stop-color:#A77D59"/>
		<stop  offset="0.5395" style="stop-color:#AA7F5A"/>
		<stop  offset="0.8502" style="stop-color:#E3A467"/>
		<stop  offset="1" style="stop-color:#F9B26C"/>
	</linearGradient>
	<path display="inline" fill="url(#SVGID_35_)" d="M408.284,307.307c0,1.485-0.924,2.839-2.775,4.061
		c-1.504,0.993-2.68,1.49-3.527,1.49c-0.582,0-0.875-0.273-0.875-0.82c0-0.164,0.047-0.388,0.137-0.67l-5.236,8.736
		c-0.318-0.073-0.578-0.109-0.779-0.109c-0.301,0-0.596,0.055-0.889,0.164l11.225-18.457c0.246,0.082,0.488,0.123,0.725,0.123
		c0.246,0,0.547-0.041,0.902-0.123l-4.061,6.563c0.977-1.294,1.684-2.142,2.127-2.543c0.441-0.401,0.881-0.602,1.318-0.602
		c0.484,0,0.889,0.21,1.217,0.629S408.284,306.687,408.284,307.307z M407.272,306.213c0-0.593-0.264-0.889-0.793-0.889
		c-0.664,0-1.781,1.071-3.35,3.213c-1.211,1.659-1.818,2.798-1.818,3.418c0,0.465,0.215,0.697,0.643,0.697
		c0.84,0,1.936-0.818,3.289-2.454S407.272,307.233,407.272,306.213z"/>
</g>
<g display="none">
	<linearGradient id="SVGID_36_" gradientUnits="userSpaceOnUse" x1="220.8818" y1="391.3818" x2="240.4678" y2="391.3818">
		<stop  offset="0" style="stop-color:#F9B26C"/>
		<stop  offset="0.3282" style="stop-color:#C28F5F"/>
		<stop  offset="0.5215" style="stop-color:#A77D59"/>
		<stop  offset="0.5395" style="stop-color:#AA7F5A"/>
		<stop  offset="0.8502" style="stop-color:#E3A467"/>
		<stop  offset="1" style="stop-color:#F9B26C"/>
	</linearGradient>
	<path display="inline" fill="url(#SVGID_36_)" d="M230.19,393.174c2.135-4.156,3.811-7.01,5.027-8.563s2.445-2.556,3.688-3.005
		c-1.033,0.045-2.072,0.24-3.121,0.584c-1.049,0.345-2.055,0.824-3.021,1.438c-1.221,0.779-2.254,1.733-3.1,2.864
		s-1.27,2.048-1.27,2.751c0,0.397,0.113,0.706,0.338,0.927s0.535,0.331,0.932,0.331c0.211,0,0.422-0.033,0.635-0.101
		s0.324-0.101,0.332-0.101c0.045,0,0.082,0.015,0.111,0.045c0.031,0.029,0.045,0.066,0.045,0.111c0,0.105-0.107,0.193-0.326,0.265
		c-0.217,0.071-0.482,0.106-0.797,0.106c-0.65,0-1.186-0.227-1.605-0.68s-0.629-1.039-0.629-1.758c0-1.152,0.555-2.267,1.662-3.341
		s2.646-1.979,4.615-2.712c1.041-0.382,2.096-0.672,3.162-0.87s2.131-0.298,3.195-0.298c0.127,0,0.227,0.013,0.297,0.039
		c0.072,0.026,0.107,0.065,0.107,0.118c0,0.045-0.295,0.143-0.883,0.292s-1.098,0.461-1.533,0.932
		c-0.508,0.569-1.316,2.108-2.426,4.616c-1.107,2.508-2.035,4.511-2.785,6.009c0.674,0.037,1.199,0.219,1.572,0.544
		c0.375,0.326,0.563,0.766,0.563,1.319c0,0.779-0.434,1.5-1.303,2.162c-0.869,0.663-1.816,0.994-2.842,0.994
		c-0.09,0-0.164-0.019-0.225-0.057c-0.059-0.037-0.09-0.082-0.09-0.135c0-0.104,0.205-0.181,0.613-0.229s0.762-0.126,1.061-0.23
		c0.711-0.247,1.283-0.603,1.719-1.067c0.434-0.464,0.65-0.943,0.65-1.438s-0.17-0.874-0.51-1.14
		c-0.342-0.266-0.822-0.398-1.443-0.398c-0.555,1.056-1.156,2.001-1.803,2.836c-0.648,0.835-1.373,1.597-2.174,2.285
		c-1.092,0.936-2.145,1.666-3.156,2.19c-1.01,0.523-1.859,0.785-2.549,0.785c-0.666,0-1.174-0.174-1.521-0.521
		c-0.348-0.349-0.521-0.852-0.521-1.511c0-1.333,0.902-2.64,2.705-3.919C225.392,394.363,227.593,393.54,230.19,393.174z
		 M230.056,393.589c-0.949,0.075-1.863,0.3-2.74,0.674c-0.875,0.374-1.74,0.909-2.594,1.606c-0.906,0.733-1.639,1.487-2.201,2.263
		c-0.561,0.774-0.842,1.397-0.842,1.87c0,0.374,0.107,0.664,0.32,0.87s0.514,0.309,0.904,0.309c0.891,0,1.857-0.543,2.902-1.628
		C226.851,398.467,228.267,396.479,230.056,393.589z"/>
	<linearGradient id="SVGID_37_" gradientUnits="userSpaceOnUse" x1="236.167" y1="392.0566" x2="250.4287" y2="392.0566">
		<stop  offset="0" style="stop-color:#F9B26C"/>
		<stop  offset="0.3282" style="stop-color:#C28F5F"/>
		<stop  offset="0.5215" style="stop-color:#A77D59"/>
		<stop  offset="0.5395" style="stop-color:#AA7F5A"/>
		<stop  offset="0.8502" style="stop-color:#E3A467"/>
		<stop  offset="1" style="stop-color:#F9B26C"/>
	</linearGradient>
	<path display="inline" fill="url(#SVGID_37_)" d="M238.12,390.119c-0.217,0.209-0.49,0.482-0.82,0.819
		c-0.523,0.539-0.842,0.809-0.953,0.809c-0.045,0-0.084-0.015-0.119-0.045c-0.033-0.03-0.053-0.067-0.061-0.112
		c0-0.104,0.172-0.303,0.516-0.596c0.232-0.201,0.42-0.374,0.563-0.516l0.719-0.686c0.156-0.149,0.318-0.309,0.482-0.478
		c0.164-0.168,0.385-0.398,0.662-0.69l2.482-0.168l-2.527,4.346c-0.307,0.531-0.545,0.962-0.713,1.291
		c-0.168,0.33-0.252,0.528-0.252,0.596c0,0.06,0.025,0.118,0.078,0.174c0.053,0.057,0.111,0.084,0.18,0.084
		c0.336,0,0.986-0.576,1.949-1.729c0.961-1.153,2.061-2.685,3.295-4.594l2.752-0.168l-2.707,4.896
		c-0.246,0.449-0.42,0.787-0.521,1.016s-0.152,0.392-0.152,0.488c0,0.045,0.02,0.083,0.057,0.113
		c0.037,0.029,0.09,0.045,0.156,0.045c0.203,0,0.469-0.116,0.799-0.349c0.328-0.232,0.789-0.629,1.381-1.19
		c0.367-0.352,0.869-0.831,1.504-1.438c1.85-1.789,2.951-2.684,3.303-2.684c0.021,0,0.082,0.011,0.18,0.033
		c0.037,0.008,0.064,0.012,0.078,0.012c-0.553,0.291-1.512,1.134-2.875,2.526c-0.539,0.547-0.961,0.97-1.27,1.269l-0.055,0.057
		c-1.625,1.603-2.838,2.403-3.639,2.403c-0.457,0-0.822-0.133-1.096-0.398s-0.41-0.624-0.41-1.073c0-0.262,0.066-0.574,0.197-0.938
		s0.42-0.986,0.869-1.869c-1.354,1.871-2.314,3.053-2.879,3.543c-0.566,0.49-1.119,0.735-1.658,0.735
		c-0.426,0-0.766-0.133-1.021-0.398c-0.254-0.266-0.381-0.624-0.381-1.073c0-0.381,0.133-0.862,0.398-1.442
		S237.38,391.287,238.12,390.119z"/>
	<linearGradient id="SVGID_38_" gradientUnits="userSpaceOnUse" x1="247.4873" y1="388.4336" x2="265.7705" y2="388.4336">
		<stop  offset="0" style="stop-color:#F9B26C"/>
		<stop  offset="0.3282" style="stop-color:#C28F5F"/>
		<stop  offset="0.5215" style="stop-color:#A77D59"/>
		<stop  offset="0.5395" style="stop-color:#AA7F5A"/>
		<stop  offset="0.8502" style="stop-color:#E3A467"/>
		<stop  offset="1" style="stop-color:#F9B26C"/>
	</linearGradient>
	<path display="inline" fill="url(#SVGID_38_)" d="M256.112,389.995c-1.205-0.03-2.191-0.384-2.959-1.062s-1.152-1.518-1.152-2.521
		c0-1.377,0.693-2.592,2.078-3.644s3.074-1.578,5.064-1.578c0.502,0,0.84,0.021,1.012,0.062s0.258,0.114,0.258,0.219
		c0,0.053-0.023,0.1-0.068,0.141s-0.096,0.063-0.156,0.063c-0.016,0-0.068-0.008-0.162-0.023c-0.094-0.015-0.178-0.021-0.254-0.021
		c-1.855,0-3.422,0.542-4.693,1.628c-1.273,1.086-1.91,2.344-1.91,3.773c0,0.778,0.268,1.403,0.803,1.876
		c0.535,0.471,1.25,0.707,2.141,0.707h0.18c0.951-2.44,2.182-4.459,3.693-6.053c1.514-1.596,2.875-2.393,4.088-2.393
		c0.488,0,0.893,0.174,1.213,0.522c0.322,0.348,0.484,0.78,0.484,1.297c0,1.093-0.602,2.244-1.803,3.453s-2.791,2.218-4.768,3.026
		c-0.711,1.857-1.805,3.36-3.279,4.51s-3.021,1.724-4.639,1.724c-1.168,0-2.092-0.234-2.773-0.702s-1.021-1.099-1.021-1.893
		c0-0.576,0.191-1.061,0.578-1.454c0.385-0.393,0.852-0.589,1.398-0.589c0.389,0,0.709,0.106,0.959,0.319
		c0.252,0.214,0.377,0.481,0.377,0.804c0,0.307-0.082,0.564-0.248,0.774c-0.164,0.21-0.355,0.318-0.572,0.325
		c-0.037,0.008-0.086,0.012-0.146,0.012c-0.875,0.06-1.313,0.311-1.313,0.752c0,0.33,0.242,0.631,0.729,0.904
		c0.488,0.273,1.049,0.41,1.686,0.41c0.996,0,1.941-0.464,2.836-1.393S255.446,391.717,256.112,389.995z M259.425,388.895
		c1.557-0.666,2.879-1.64,3.965-2.92s1.627-2.369,1.627-3.268c0-0.39-0.074-0.674-0.225-0.854c-0.148-0.18-0.381-0.27-0.695-0.27
		c-0.846,0-1.668,0.623-2.465,1.869C260.835,384.7,260.099,386.514,259.425,388.895z"/>
	<linearGradient id="SVGID_39_" gradientUnits="userSpaceOnUse" x1="261.333" y1="392.0566" x2="275.5967" y2="392.0566">
		<stop  offset="0" style="stop-color:#F9B26C"/>
		<stop  offset="0.3282" style="stop-color:#C28F5F"/>
		<stop  offset="0.5215" style="stop-color:#A77D59"/>
		<stop  offset="0.5395" style="stop-color:#AA7F5A"/>
		<stop  offset="0.8502" style="stop-color:#E3A467"/>
		<stop  offset="1" style="stop-color:#F9B26C"/>
	</linearGradient>
	<path display="inline" fill="url(#SVGID_39_)" d="M263.288,390.119c-0.217,0.209-0.49,0.482-0.82,0.819
		c-0.523,0.539-0.842,0.809-0.955,0.809c-0.045,0-0.084-0.015-0.117-0.045s-0.055-0.067-0.063-0.112
		c0-0.104,0.172-0.303,0.518-0.596c0.232-0.201,0.418-0.374,0.561-0.516l0.719-0.686c0.158-0.149,0.318-0.309,0.484-0.478
		c0.164-0.168,0.385-0.398,0.662-0.69l2.482-0.168l-2.527,4.346c-0.307,0.531-0.545,0.962-0.713,1.291
		c-0.17,0.33-0.254,0.528-0.254,0.596c0,0.06,0.027,0.118,0.08,0.174c0.051,0.057,0.111,0.084,0.18,0.084
		c0.336,0,0.986-0.576,1.947-1.729c0.963-1.153,2.061-2.685,3.297-4.594l2.752-0.168l-2.707,4.896
		c-0.248,0.449-0.422,0.787-0.523,1.016c-0.1,0.229-0.15,0.392-0.15,0.488c0,0.045,0.018,0.083,0.057,0.113
		c0.037,0.029,0.09,0.045,0.156,0.045c0.203,0,0.469-0.116,0.797-0.349c0.33-0.232,0.791-0.629,1.383-1.19
		c0.365-0.352,0.867-0.831,1.504-1.438c1.85-1.789,2.949-2.684,3.303-2.684c0.021,0,0.082,0.011,0.18,0.033
		c0.037,0.008,0.063,0.012,0.078,0.012c-0.555,0.291-1.514,1.134-2.875,2.526c-0.539,0.547-0.963,0.97-1.27,1.269l-0.057,0.057
		c-1.625,1.603-2.838,2.403-3.639,2.403c-0.457,0-0.82-0.133-1.094-0.398s-0.41-0.624-0.41-1.073c0-0.262,0.064-0.574,0.195-0.938
		s0.422-0.986,0.871-1.869c-1.355,1.871-2.314,3.053-2.881,3.543c-0.564,0.49-1.117,0.735-1.656,0.735
		c-0.426,0-0.768-0.133-1.021-0.398c-0.256-0.266-0.383-0.624-0.383-1.073c0-0.381,0.133-0.862,0.398-1.442
		S262.546,391.287,263.288,390.119z"/>
	<linearGradient id="SVGID_40_" gradientUnits="userSpaceOnUse" x1="275.0693" y1="388.4453" x2="288.4561" y2="388.4453">
		<stop  offset="0" style="stop-color:#F9B26C"/>
		<stop  offset="0.3282" style="stop-color:#C28F5F"/>
		<stop  offset="0.5215" style="stop-color:#A77D59"/>
		<stop  offset="0.5395" style="stop-color:#AA7F5A"/>
		<stop  offset="0.8502" style="stop-color:#E3A467"/>
		<stop  offset="1" style="stop-color:#F9B26C"/>
	</linearGradient>
	<path display="inline" fill="url(#SVGID_40_)" d="M285.187,390.299c-0.426,0.225-0.844,0.391-1.252,0.499s-0.818,0.163-1.229,0.163
		c-0.57,0-1.07-0.102-1.5-0.303c-0.432-0.203-0.844-0.536-1.24-1c-0.039,0-0.102,0.004-0.191,0.012
		c-0.314,0.021-0.531,0.033-0.652,0.033c-1.182,0-2.154-0.327-2.914-0.982s-1.139-1.484-1.139-2.488
		c0-0.793,0.232-1.546,0.701-2.257c0.467-0.711,1.125-1.303,1.971-1.774c0.42-0.232,0.855-0.425,1.309-0.578s0.791-0.23,1.016-0.23
		c0.061,0.008,0.113,0.028,0.158,0.062c0.045,0.034,0.066,0.069,0.066,0.106c0,0.083-0.191,0.197-0.578,0.343
		c-0.385,0.146-0.742,0.331-1.072,0.556c-0.727,0.479-1.346,1.147-1.859,2.005c-0.512,0.857-0.768,1.646-0.768,2.364
		c0,0.756,0.277,1.374,0.836,1.854c0.557,0.479,1.275,0.719,2.15,0.719c0.113,0,0.23-0.006,0.354-0.018
		c0.123-0.011,0.26-0.027,0.41-0.051c-0.15-0.359-0.26-0.701-0.332-1.027c-0.07-0.325-0.105-0.635-0.105-0.926
		c0-0.884,0.232-1.709,0.695-2.477c0.465-0.768,1.146-1.451,2.045-2.05c0.785-0.531,1.574-0.949,2.363-1.252
		c0.791-0.304,1.473-0.455,2.051-0.455c0.59,0,1.068,0.159,1.432,0.478s0.545,0.735,0.545,1.252c0,0.614-0.291,1.342-0.871,2.185
		c-0.58,0.842-1.373,1.66-2.375,2.454c-0.719,0.568-1.447,1.027-2.186,1.375c-0.736,0.349-1.473,0.582-2.205,0.702
		c0.104,0.322,0.322,0.571,0.656,0.747c0.332,0.176,0.758,0.264,1.275,0.264c0.59,0,1.172-0.103,1.746-0.309
		c0.572-0.206,1.203-0.541,1.893-1.006c0.23-0.156,0.523-0.362,0.875-0.617c0.473-0.337,0.752-0.506,0.842-0.506
		c0.068,0,0.107,0.002,0.119,0.006c0.01,0.004,0.02,0.018,0.027,0.039c-0.008,0.023-0.041,0.064-0.102,0.124
		c-0.396,0.412-0.707,1.003-0.932,1.774c-0.053,0.165-0.127,0.416-0.225,0.752c-0.404,1.453-0.875,2.494-1.414,3.123
		c-0.494,0.561-1.154,0.995-1.977,1.303c-0.824,0.307-1.752,0.46-2.785,0.46c-1.311,0-2.34-0.235-3.09-0.708
		c-0.748-0.471-1.123-1.115-1.123-1.932c0-0.531,0.178-0.975,0.533-1.33s0.793-0.533,1.309-0.533c0.391,0,0.703,0.103,0.938,0.309
		c0.236,0.206,0.355,0.47,0.355,0.791c0,0.322-0.1,0.577-0.299,0.764c-0.197,0.188-0.529,0.334-0.994,0.438
		c-0.277,0.067-0.471,0.151-0.584,0.253c-0.111,0.101-0.168,0.237-0.168,0.41c0,0.299,0.236,0.563,0.707,0.791
		c0.473,0.229,1.049,0.343,1.73,0.343c0.846,0,1.629-0.345,2.348-1.033S284.101,392.282,285.187,390.299z M280.774,389.242
		c0.822-0.156,1.65-0.464,2.48-0.92c0.832-0.457,1.629-1.049,2.393-1.775c0.742-0.681,1.332-1.373,1.775-2.077
		c0.441-0.704,0.662-1.276,0.662-1.718c0-0.375-0.105-0.674-0.314-0.898c-0.211-0.225-0.494-0.338-0.854-0.338
		c-0.473,0-1.055,0.267-1.746,0.798c-0.693,0.531-1.391,1.262-2.096,2.19c-0.682,0.905-1.213,1.75-1.594,2.532
		C281.099,387.818,280.864,388.554,280.774,389.242z"/>
	<linearGradient id="SVGID_41_" gradientUnits="userSpaceOnUse" x1="287.792" y1="392.0781" x2="302.1885" y2="392.0781">
		<stop  offset="0" style="stop-color:#F9B26C"/>
		<stop  offset="0.3282" style="stop-color:#C28F5F"/>
		<stop  offset="0.5215" style="stop-color:#A77D59"/>
		<stop  offset="0.5395" style="stop-color:#AA7F5A"/>
		<stop  offset="0.8502" style="stop-color:#E3A467"/>
		<stop  offset="1" style="stop-color:#F9B26C"/>
	</linearGradient>
	<path display="inline" fill="url(#SVGID_41_)" d="M295.204,389.726l0.551-1.101l2.246-0.168l-2.359,4.852
		c-0.193,0.389-0.352,0.719-0.471,0.988c-0.121,0.27-0.18,0.43-0.18,0.482c0,0.09,0.023,0.163,0.072,0.219
		c0.049,0.057,0.111,0.084,0.186,0.084c0.217,0,1.008-0.677,2.369-2.032c0.346-0.337,0.611-0.603,0.797-0.798
		c1.033-1.018,1.824-1.748,2.371-2.189s0.932-0.662,1.156-0.662c0.016,0,0.07,0.011,0.168,0.033
		c0.037,0.008,0.064,0.012,0.078,0.012c-0.531,0.284-1.475,1.107-2.83,2.471c-0.381,0.381-0.68,0.677-0.898,0.887
		c-0.156,0.165-0.381,0.396-0.674,0.696c-1.443,1.468-2.561,2.201-3.346,2.201c-0.412,0-0.744-0.122-1-0.365
		c-0.254-0.243-0.381-0.563-0.381-0.96c0-0.239,0.023-0.464,0.072-0.674s0.125-0.423,0.23-0.641
		c-0.592,0.861-1.189,1.513-1.791,1.955c-0.604,0.441-1.189,0.662-1.758,0.662c-0.6,0-1.086-0.188-1.461-0.562
		c-0.373-0.374-0.561-0.868-0.561-1.482c0-0.674,0.164-1.301,0.494-1.881s0.838-1.14,1.527-1.679
		c0.689-0.532,1.34-0.935,1.953-1.208c0.615-0.273,1.176-0.409,1.686-0.409c0.494,0,0.889,0.106,1.186,0.319
		C294.933,388.99,295.122,389.307,295.204,389.726z M294.812,389.883c0-0.27-0.084-0.49-0.254-0.662
		c-0.168-0.173-0.383-0.259-0.645-0.259c-0.285,0-0.641,0.202-1.068,0.606c-0.426,0.404-0.945,1.029-1.561,1.875
		c-0.637,0.877-1.1,1.59-1.393,2.14c-0.291,0.551-0.438,0.99-0.438,1.319c0,0.158,0.035,0.273,0.107,0.349
		c0.07,0.075,0.188,0.112,0.354,0.112c0.336,0,0.744-0.172,1.223-0.517c0.48-0.345,0.982-0.823,1.506-1.438
		c0.666-0.778,1.193-1.488,1.584-2.128C294.616,390.641,294.812,390.175,294.812,389.883z"/>
	<linearGradient id="SVGID_42_" gradientUnits="userSpaceOnUse" x1="298.1689" y1="392.0781" x2="314.3193" y2="392.0781">
		<stop  offset="0" style="stop-color:#F9B26C"/>
		<stop  offset="0.3282" style="stop-color:#C28F5F"/>
		<stop  offset="0.5215" style="stop-color:#A77D59"/>
		<stop  offset="0.5395" style="stop-color:#AA7F5A"/>
		<stop  offset="0.8502" style="stop-color:#E3A467"/>
		<stop  offset="1" style="stop-color:#F9B26C"/>
	</linearGradient>
	<path display="inline" fill="url(#SVGID_42_)" d="M303.347,391.904c1.01-1.168,1.887-2.034,2.627-2.6
		c0.742-0.565,1.367-0.848,1.877-0.848c0.449,0,0.799,0.162,1.049,0.488c0.252,0.325,0.377,0.776,0.377,1.354
		c0,0.426-0.113,0.874-0.338,1.342s-0.676,1.14-1.357,2.016c-0.09,0.112-0.203,0.251-0.338,0.416
		c-0.314,0.381-0.471,0.644-0.471,0.785c0,0.061,0.021,0.109,0.066,0.146s0.105,0.057,0.18,0.057c0.188,0,0.512-0.171,0.973-0.512
		c0.459-0.341,1.012-0.821,1.656-1.443l0.438-0.426c2.275-2.217,3.602-3.324,3.975-3.324c0.023,0,0.08,0.011,0.17,0.033
		c0.037,0.008,0.066,0.012,0.09,0.012c-0.563,0.291-1.707,1.31-3.438,3.055l-0.291,0.303l-0.125,0.123
		c-1.842,1.865-3.15,2.797-3.93,2.797c-0.428,0-0.779-0.172-1.057-0.517c-0.275-0.345-0.414-0.794-0.414-1.348
		c0-0.404,0.096-0.813,0.285-1.224c0.191-0.412,0.564-0.963,1.117-1.651c0.174-0.202,0.395-0.464,0.664-0.786
		c0.463-0.539,0.695-0.857,0.695-0.955c0-0.066-0.016-0.117-0.051-0.151c-0.033-0.033-0.092-0.054-0.174-0.062
		c-0.576,0-1.439,0.588-2.588,1.764c-1.15,1.175-2.42,2.773-3.813,4.795l-3.033,0.157l1.797-2.64
		c0.576-0.846,0.996-1.493,1.258-1.942s0.393-0.745,0.393-0.888c0-0.074-0.012-0.131-0.039-0.168
		c-0.025-0.037-0.064-0.06-0.117-0.067c-0.135,0-0.416,0.212-0.842,0.635c-0.428,0.423-0.709,0.634-0.844,0.634
		c-0.029,0-0.055-0.007-0.078-0.021c-0.021-0.016-0.033-0.03-0.033-0.045c0-0.075,0.035-0.163,0.107-0.265
		c0.07-0.101,0.188-0.233,0.354-0.398c0.674-0.711,1.227-1.231,1.662-1.562c0.434-0.329,0.785-0.494,1.055-0.494
		c0.277,0,0.504,0.135,0.68,0.404s0.264,0.626,0.264,1.067c0,0.307-0.037,0.623-0.111,0.949
		C303.597,391.225,303.489,391.56,303.347,391.904z"/>
	<linearGradient id="SVGID_43_" gradientUnits="userSpaceOnUse" x1="308.1982" y1="395.459" x2="325.2783" y2="395.459">
		<stop  offset="0" style="stop-color:#F9B26C"/>
		<stop  offset="0.3282" style="stop-color:#C28F5F"/>
		<stop  offset="0.5215" style="stop-color:#A77D59"/>
		<stop  offset="0.5395" style="stop-color:#AA7F5A"/>
		<stop  offset="0.8502" style="stop-color:#E3A467"/>
		<stop  offset="1" style="stop-color:#F9B26C"/>
	</linearGradient>
	<path display="inline" fill="url(#SVGID_43_)" d="M314.79,395.869l1.572-2.809c-0.719,0.943-1.357,1.616-1.914,2.017
		c-0.559,0.4-1.119,0.601-1.68,0.601c-0.592,0-1.072-0.191-1.443-0.572c-0.371-0.383-0.557-0.88-0.557-1.494
		c0-0.659,0.172-1.276,0.512-1.854c0.342-0.576,0.875-1.156,1.6-1.74c0.66-0.509,1.293-0.896,1.898-1.162
		c0.607-0.266,1.164-0.398,1.674-0.398c0.494,0,0.889,0.106,1.186,0.319c0.295,0.214,0.48,0.53,0.555,0.949l0.629-1.078l2.27-0.19
		l-3.65,6.625c0.465-0.156,1.02-0.454,1.668-0.893c0.646-0.438,1.363-1.005,2.15-1.701c0.404-0.359,0.943-0.865,1.617-1.516
		c1.115-1.078,1.834-1.617,2.156-1.617c0.016,0,0.07,0.011,0.168,0.033c0.037,0.008,0.064,0.012,0.078,0.012
		c-0.531,0.321-1.641,1.31-3.328,2.965c-1.689,1.654-3.316,2.743-4.881,3.268c-1.227,2.373-2.383,4.104-3.465,5.194
		c-1.082,1.089-2.172,1.634-3.273,1.634c-0.629,0-1.141-0.161-1.539-0.482c-0.396-0.322-0.594-0.727-0.594-1.213
		c0-0.922,0.543-1.786,1.627-2.595C310.911,397.362,312.565,396.595,314.79,395.869z M314.632,396.329
		c-1.654,0.562-3.004,1.278-4.047,2.15c-1.045,0.872-1.568,1.687-1.568,2.442c0,0.345,0.102,0.61,0.305,0.798
		c0.201,0.188,0.486,0.28,0.854,0.28c0.576,0,1.199-0.421,1.869-1.263C312.714,399.895,313.577,398.426,314.632,396.329z
		 M317.788,389.883c0-0.27-0.082-0.49-0.246-0.662c-0.166-0.173-0.375-0.259-0.629-0.259c-0.285,0-0.641,0.202-1.068,0.606
		c-0.426,0.404-0.945,1.029-1.561,1.875c-0.584,0.809-1.041,1.509-1.369,2.101c-0.33,0.592-0.494,1.022-0.494,1.292
		c0,0.172,0.041,0.303,0.123,0.393s0.201,0.135,0.359,0.135c0.336,0,0.748-0.174,1.234-0.522c0.488-0.348,0.988-0.825,1.506-1.432
		c0.65-0.771,1.172-1.477,1.561-2.117C317.595,390.652,317.788,390.183,317.788,389.883z"/>
</g>
<line display="none" fill="none" stroke="#F8B26D" stroke-width="2" stroke-miterlimit="10" x1="182.979" y1="331.543" x2="363.265" y2="331.543"/>
<linearGradient id="SVGID_44_" gradientUnits="userSpaceOnUse" x1="391.3857" y1="477.9619" x2="154.8559" y2="68.2803">
	<stop  offset="0" style="stop-color:#F9B26C"/>
	<stop  offset="0.5323" style="stop-color:#E19C62"/>
	<stop  offset="0.5678" style="stop-color:#E39E63"/>
	<stop  offset="1" style="stop-color:#F9B26C"/>
</linearGradient>
<rect x="86.996" y="86.995" transform="matrix(0.7071 0.7071 -0.7071 0.7071 273.1199 -113.1312)" display="none" fill="none" stroke="url(#SVGID_44_)" stroke-width="14" stroke-miterlimit="10" width="372.252" height="372.253"/>
<linearGradient id="SVGID_45_" gradientUnits="userSpaceOnUse" x1="-308.1318" y1="-11.0469" x2="-285.396" y2="11.689" gradientTransform="matrix(-1 0 0 -1 -23.6436 174.7988)">
	<stop  offset="0" style="stop-color:#F9B26C"/>
	<stop  offset="0.3282" style="stop-color:#C28F5F"/>
	<stop  offset="0.5215" style="stop-color:#A77D59"/>
	<stop  offset="0.5395" style="stop-color:#AA7F5A"/>
	<stop  offset="0.8502" style="stop-color:#E3A467"/>
	<stop  offset="1" style="stop-color:#F9B26C"/>
</linearGradient>
<polygon display="none" fill="url(#SVGID_45_)" points="289.765,168.386 273.121,197.214 256.478,168.386 "/>
</svg>
